<mxfile host="Electron" modified="2024-01-26T10:14:24.352Z" agent="Mozilla/5.0 (Macintosh; Intel Mac OS X 10_15_7) AppleWebKit/537.36 (KHTML, like Gecko) draw.io/22.1.21 Chrome/120.0.6099.109 Electron/28.1.0 Safari/537.36" etag="mZ6kkgE0xpVPBnMPq4Tt" version="22.1.21" type="device" pages="6">
  <diagram id="nPXv_zS40TNIIb_WLOnc" name="VPC">
    <mxGraphModel dx="1434" dy="854" grid="1" gridSize="14" guides="1" tooltips="1" connect="1" arrows="1" fold="1" page="1" pageScale="1" pageWidth="1169" pageHeight="827" math="0" shadow="0">
      <root>
        <mxCell id="0" />
        <mxCell id="1" parent="0" />
        <mxCell id="SwhUTjs0V1nWhBu83zFv-1" value="&lt;h1&gt;&lt;u&gt;VPC&lt;/u&gt;&lt;/h1&gt;" style="text;html=1;strokeColor=none;fillColor=none;spacing=5;spacingTop=-20;whiteSpace=wrap;overflow=hidden;rounded=0;" parent="1" vertex="1">
          <mxGeometry x="28" y="28" width="728" height="56" as="geometry" />
        </mxCell>
        <mxCell id="SBZBz_Np0xbocnp7QMh_-1" value="" style="edgeStyle=none;rounded=0;orthogonalLoop=1;jettySize=auto;html=1;fontSize=12;" parent="1" source="SBZBz_Np0xbocnp7QMh_-2" target="SBZBz_Np0xbocnp7QMh_-4" edge="1">
          <mxGeometry relative="1" as="geometry" />
        </mxCell>
        <mxCell id="SBZBz_Np0xbocnp7QMh_-2" value="&lt;font color=&quot;#000000&quot;&gt;Web Server&lt;/font&gt;" style="shape=image;html=1;verticalAlign=top;verticalLabelPosition=bottom;labelBackgroundColor=#ffffff;imageAspect=0;aspect=fixed;image=https://cdn2.iconfinder.com/data/icons/amazon-aws-stencils/100/Compute__Networking_copy_Amazon_EC2_Instance-128.png;fontColor=#FF8000;" parent="1" vertex="1">
          <mxGeometry x="252" y="279" width="56" height="56" as="geometry" />
        </mxCell>
        <mxCell id="SBZBz_Np0xbocnp7QMh_-3" value="" style="edgeStyle=none;rounded=0;orthogonalLoop=1;jettySize=auto;html=1;fontSize=12;" parent="1" source="SBZBz_Np0xbocnp7QMh_-4" target="SBZBz_Np0xbocnp7QMh_-12" edge="1">
          <mxGeometry relative="1" as="geometry" />
        </mxCell>
        <mxCell id="SBZBz_Np0xbocnp7QMh_-4" value="&lt;font color=&quot;#000000&quot;&gt;Application Server&lt;/font&gt;" style="shape=image;html=1;verticalAlign=top;verticalLabelPosition=bottom;labelBackgroundColor=#ffffff;imageAspect=0;aspect=fixed;image=https://cdn2.iconfinder.com/data/icons/amazon-aws-stencils/100/Compute__Networking_copy_Amazon_EC2_Instance-128.png;fontColor=#FF8000;" parent="1" vertex="1">
          <mxGeometry x="252" y="444" width="56" height="56" as="geometry" />
        </mxCell>
        <mxCell id="SBZBz_Np0xbocnp7QMh_-5" value="Firewall" style="image;html=1;image=img/lib/clip_art/networking/Firewall_02_128x128.png;fillColor=#C9F8FF;fontSize=12;align=left;" parent="1" vertex="1">
          <mxGeometry x="110" y="356" width="80" height="80" as="geometry" />
        </mxCell>
        <mxCell id="SBZBz_Np0xbocnp7QMh_-6" value="" style="endArrow=none;dashed=1;html=1;dashPattern=1 3;strokeWidth=2;fontSize=12;" parent="1" source="SBZBz_Np0xbocnp7QMh_-5" edge="1">
          <mxGeometry width="50" height="50" relative="1" as="geometry">
            <mxPoint x="470" y="352" as="sourcePoint" />
            <mxPoint x="400" y="396" as="targetPoint" />
          </mxGeometry>
        </mxCell>
        <mxCell id="SBZBz_Np0xbocnp7QMh_-7" value="Firewall" style="image;html=1;image=img/lib/clip_art/networking/Firewall_02_128x128.png;fillColor=#C9F8FF;fontSize=12;align=left;" parent="1" vertex="1">
          <mxGeometry x="110" y="212" width="80" height="80" as="geometry" />
        </mxCell>
        <mxCell id="SBZBz_Np0xbocnp7QMh_-8" value="" style="endArrow=none;dashed=1;html=1;dashPattern=1 3;strokeWidth=2;fontSize=12;" parent="1" source="SBZBz_Np0xbocnp7QMh_-7" edge="1">
          <mxGeometry width="50" height="50" relative="1" as="geometry">
            <mxPoint x="470" y="208" as="sourcePoint" />
            <mxPoint x="400" y="252" as="targetPoint" />
          </mxGeometry>
        </mxCell>
        <mxCell id="SBZBz_Np0xbocnp7QMh_-9" value="" style="edgeStyle=none;rounded=0;orthogonalLoop=1;jettySize=auto;html=1;fontSize=12;" parent="1" source="SBZBz_Np0xbocnp7QMh_-10" target="SBZBz_Np0xbocnp7QMh_-11" edge="1">
          <mxGeometry relative="1" as="geometry" />
        </mxCell>
        <mxCell id="SBZBz_Np0xbocnp7QMh_-10" value="" style="outlineConnect=0;fontColor=#232F3E;gradientColor=none;fillColor=#232F3E;strokeColor=none;dashed=0;verticalLabelPosition=bottom;verticalAlign=top;align=center;html=1;fontSize=12;fontStyle=0;aspect=fixed;pointerEvents=1;shape=mxgraph.aws4.user;" parent="1" vertex="1">
          <mxGeometry x="150" y="84" width="56" height="56" as="geometry" />
        </mxCell>
        <mxCell id="SBZBz_Np0xbocnp7QMh_-11" value="" style="verticalLabelPosition=bottom;html=1;verticalAlign=top;align=center;strokeColor=none;fillColor=#00BEF2;shape=mxgraph.azure.laptop;pointerEvents=1;fontSize=12;" parent="1" vertex="1">
          <mxGeometry x="299" y="84" width="68" height="52" as="geometry" />
        </mxCell>
        <mxCell id="SBZBz_Np0xbocnp7QMh_-12" value="db" style="shape=cylinder3;whiteSpace=wrap;html=1;boundedLbl=1;backgroundOutline=1;size=8.333333333333428;fillColor=#C9F8FF;fontSize=12;align=center;" parent="1" vertex="1">
          <mxGeometry x="377" y="444" width="40" height="56" as="geometry" />
        </mxCell>
      </root>
    </mxGraphModel>
  </diagram>
  <diagram id="sQPmBzeCZPlhnM6Qj99l" name="Scope">
    <mxGraphModel dx="1106" dy="892" grid="1" gridSize="14" guides="1" tooltips="1" connect="1" arrows="1" fold="1" page="1" pageScale="1" pageWidth="1169" pageHeight="827" math="0" shadow="0">
      <root>
        <mxCell id="JwKcrn9FWQMRQsLYgOVu-0" />
        <mxCell id="JwKcrn9FWQMRQsLYgOVu-1" parent="JwKcrn9FWQMRQsLYgOVu-0" />
        <mxCell id="JwKcrn9FWQMRQsLYgOVu-2" value="other Regions" style="points=[[0,0],[0.25,0],[0.5,0],[0.75,0],[1,0],[1,0.25],[1,0.5],[1,0.75],[1,1],[0.75,1],[0.5,1],[0.25,1],[0,1],[0,0.75],[0,0.5],[0,0.25]];outlineConnect=0;gradientColor=none;html=1;whiteSpace=wrap;fontSize=12;fontStyle=0;shape=mxgraph.aws4.group;grIcon=mxgraph.aws4.group_region;strokeColor=#147EBA;fillColor=#EBFEFF;verticalAlign=top;align=left;spacingLeft=30;fontColor=#147EBA;dashed=1;labelBackgroundColor=#ffffff;" parent="JwKcrn9FWQMRQsLYgOVu-1" vertex="1">
          <mxGeometry x="756" y="196" width="102" height="588" as="geometry" />
        </mxCell>
        <mxCell id="JwKcrn9FWQMRQsLYgOVu-3" value="Region Frankfurt (eu-central-1)" style="points=[[0,0],[0.25,0],[0.5,0],[0.75,0],[1,0],[1,0.25],[1,0.5],[1,0.75],[1,1],[0.75,1],[0.5,1],[0.25,1],[0,1],[0,0.75],[0,0.5],[0,0.25]];outlineConnect=0;gradientColor=none;html=1;whiteSpace=wrap;fontSize=12;fontStyle=0;shape=mxgraph.aws4.group;grIcon=mxgraph.aws4.group_region;strokeColor=#147EBA;verticalAlign=top;align=left;spacingLeft=30;fontColor=#147EBA;dashed=1;labelBackgroundColor=#ffffff;fillColor=#EBFEFF;" parent="JwKcrn9FWQMRQsLYgOVu-1" vertex="1">
          <mxGeometry x="70" y="196" width="410" height="588" as="geometry" />
        </mxCell>
        <mxCell id="JwKcrn9FWQMRQsLYgOVu-4" value="AZ A" style="rounded=1;arcSize=10;dashed=1;strokeColor=#F59D56;fillColor=none;gradientColor=none;dashPattern=8 4;strokeWidth=2;verticalAlign=bottom;" parent="JwKcrn9FWQMRQsLYgOVu-1" vertex="1">
          <mxGeometry x="102" y="224" width="98" height="546" as="geometry" />
        </mxCell>
        <mxCell id="JwKcrn9FWQMRQsLYgOVu-5" value="AZ B" style="rounded=1;arcSize=10;dashed=1;strokeColor=#F59D56;fillColor=none;gradientColor=none;dashPattern=8 4;strokeWidth=2;verticalAlign=bottom;" parent="JwKcrn9FWQMRQsLYgOVu-1" vertex="1">
          <mxGeometry x="228" y="224" width="98" height="546" as="geometry" />
        </mxCell>
        <mxCell id="JwKcrn9FWQMRQsLYgOVu-6" value="AZ C" style="rounded=1;arcSize=10;dashed=1;strokeColor=#F59D56;fillColor=none;gradientColor=none;dashPattern=8 4;strokeWidth=2;verticalAlign=bottom;" parent="JwKcrn9FWQMRQsLYgOVu-1" vertex="1">
          <mxGeometry x="354" y="224" width="98" height="546" as="geometry" />
        </mxCell>
        <mxCell id="JwKcrn9FWQMRQsLYgOVu-7" value="Region Paris" style="points=[[0,0],[0.25,0],[0.5,0],[0.75,0],[1,0],[1,0.25],[1,0.5],[1,0.75],[1,1],[0.75,1],[0.5,1],[0.25,1],[0,1],[0,0.75],[0,0.5],[0,0.25]];outlineConnect=0;gradientColor=none;html=1;whiteSpace=wrap;fontSize=12;fontStyle=0;shape=mxgraph.aws4.group;grIcon=mxgraph.aws4.group_region;strokeColor=#147EBA;fillColor=#EBFEFF;verticalAlign=top;align=left;spacingLeft=30;fontColor=#147EBA;dashed=1;labelBackgroundColor=#ffffff;" parent="JwKcrn9FWQMRQsLYgOVu-1" vertex="1">
          <mxGeometry x="508" y="196" width="102" height="588" as="geometry" />
        </mxCell>
        <mxCell id="JwKcrn9FWQMRQsLYgOVu-8" value="Region Ohio" style="points=[[0,0],[0.25,0],[0.5,0],[0.75,0],[1,0],[1,0.25],[1,0.5],[1,0.75],[1,1],[0.75,1],[0.5,1],[0.25,1],[0,1],[0,0.75],[0,0.5],[0,0.25]];outlineConnect=0;gradientColor=none;html=1;whiteSpace=wrap;fontSize=12;fontStyle=0;shape=mxgraph.aws4.group;grIcon=mxgraph.aws4.group_region;strokeColor=#147EBA;fillColor=#EBFEFF;verticalAlign=top;align=left;spacingLeft=30;fontColor=#147EBA;dashed=1;labelBackgroundColor=#ffffff;" parent="JwKcrn9FWQMRQsLYgOVu-1" vertex="1">
          <mxGeometry x="634" y="196" width="102" height="588" as="geometry" />
        </mxCell>
      </root>
    </mxGraphModel>
  </diagram>
  <diagram id="wAaxurWkAXeXDdk1uQ3r" name="Access">
    <mxGraphModel dx="1106" dy="892" grid="1" gridSize="10" guides="1" tooltips="1" connect="1" arrows="1" fold="1" page="1" pageScale="1" pageWidth="1169" pageHeight="827" math="0" shadow="0">
      <root>
        <mxCell id="HSrM1s2Zt8Kl6GXDCidC-0" />
        <mxCell id="HSrM1s2Zt8Kl6GXDCidC-1" parent="HSrM1s2Zt8Kl6GXDCidC-0" />
        <mxCell id="HSrM1s2Zt8Kl6GXDCidC-2" value="s3:PutObject" style="edgeStyle=none;rounded=0;orthogonalLoop=1;jettySize=auto;html=1;" parent="HSrM1s2Zt8Kl6GXDCidC-1" source="HSrM1s2Zt8Kl6GXDCidC-4" target="HSrM1s2Zt8Kl6GXDCidC-5" edge="1">
          <mxGeometry relative="1" as="geometry" />
        </mxCell>
        <mxCell id="HSrM1s2Zt8Kl6GXDCidC-4" value="S3 API" style="rounded=1;whiteSpace=wrap;html=1;fillColor=#d5e8d4;strokeColor=#82b366;" parent="HSrM1s2Zt8Kl6GXDCidC-1" vertex="1">
          <mxGeometry x="525" y="370" width="120" height="60" as="geometry" />
        </mxCell>
        <mxCell id="HSrM1s2Zt8Kl6GXDCidC-5" value="CSV file" style="rounded=1;whiteSpace=wrap;html=1;" parent="HSrM1s2Zt8Kl6GXDCidC-1" vertex="1">
          <mxGeometry x="760" y="290" width="120" height="60" as="geometry" />
        </mxCell>
        <mxCell id="HSrM1s2Zt8Kl6GXDCidC-7" value="" style="edgeStyle=none;rounded=0;orthogonalLoop=1;jettySize=auto;html=1;" parent="HSrM1s2Zt8Kl6GXDCidC-1" source="HSrM1s2Zt8Kl6GXDCidC-8" target="HSrM1s2Zt8Kl6GXDCidC-4" edge="1">
          <mxGeometry relative="1" as="geometry" />
        </mxCell>
        <mxCell id="HSrM1s2Zt8Kl6GXDCidC-8" value="AWS Management Console" style="rounded=1;whiteSpace=wrap;html=1;" parent="HSrM1s2Zt8Kl6GXDCidC-1" vertex="1">
          <mxGeometry x="280" y="250" width="120" height="60" as="geometry" />
        </mxCell>
        <mxCell id="chMzgCeebvtLGlBS5TQb-0" value="" style="sketch=0;outlineConnect=0;fontColor=#232F3E;gradientColor=none;fillColor=#232F3E;strokeColor=none;dashed=0;verticalLabelPosition=bottom;verticalAlign=top;align=center;html=1;fontSize=12;fontStyle=0;aspect=fixed;pointerEvents=1;shape=mxgraph.aws4.user;" vertex="1" parent="HSrM1s2Zt8Kl6GXDCidC-1">
          <mxGeometry x="180" y="242" width="78" height="78" as="geometry" />
        </mxCell>
        <mxCell id="chMzgCeebvtLGlBS5TQb-1" value="S3 Service" style="sketch=0;points=[[0,0,0],[0.25,0,0],[0.5,0,0],[0.75,0,0],[1,0,0],[0,1,0],[0.25,1,0],[0.5,1,0],[0.75,1,0],[1,1,0],[0,0.25,0],[0,0.5,0],[0,0.75,0],[1,0.25,0],[1,0.5,0],[1,0.75,0]];outlineConnect=0;fontColor=#232F3E;gradientColor=#60A337;gradientDirection=north;fillColor=#277116;strokeColor=#ffffff;dashed=0;verticalLabelPosition=bottom;verticalAlign=top;align=center;html=1;fontSize=12;fontStyle=0;aspect=fixed;shape=mxgraph.aws4.resourceIcon;resIcon=mxgraph.aws4.s3;" vertex="1" parent="HSrM1s2Zt8Kl6GXDCidC-1">
          <mxGeometry x="540" y="250" width="78" height="78" as="geometry" />
        </mxCell>
        <mxCell id="chMzgCeebvtLGlBS5TQb-2" value="S3 Bucket" style="sketch=0;outlineConnect=0;fontColor=#232F3E;gradientColor=none;fillColor=#3F8624;strokeColor=none;dashed=0;verticalLabelPosition=bottom;verticalAlign=top;align=center;html=1;fontSize=12;fontStyle=0;aspect=fixed;pointerEvents=1;shape=mxgraph.aws4.bucket;" vertex="1" parent="HSrM1s2Zt8Kl6GXDCidC-1">
          <mxGeometry x="782.5" y="361" width="75" height="78" as="geometry" />
        </mxCell>
      </root>
    </mxGraphModel>
  </diagram>
  <diagram id="3PreViqsLYmPBpTASXQX" name="Page-4">
    <mxGraphModel dx="956" dy="569" grid="1" gridSize="10" guides="1" tooltips="1" connect="1" arrows="1" fold="1" page="1" pageScale="1" pageWidth="1169" pageHeight="827" math="0" shadow="0">
      <root>
        <mxCell id="0" />
        <mxCell id="1" parent="0" />
        <mxCell id="70OCVyU23DANTi2EN0oC-6" value="" style="rounded=0;orthogonalLoop=1;jettySize=auto;html=1;" edge="1" parent="1" source="70OCVyU23DANTi2EN0oC-1" target="70OCVyU23DANTi2EN0oC-5">
          <mxGeometry relative="1" as="geometry" />
        </mxCell>
        <mxCell id="70OCVyU23DANTi2EN0oC-8" value="" style="rounded=0;orthogonalLoop=1;jettySize=auto;html=1;" edge="1" parent="1" source="70OCVyU23DANTi2EN0oC-1" target="70OCVyU23DANTi2EN0oC-7">
          <mxGeometry relative="1" as="geometry" />
        </mxCell>
        <mxCell id="70OCVyU23DANTi2EN0oC-10" value="" style="edgeStyle=none;shape=connector;rounded=0;orthogonalLoop=1;jettySize=auto;html=1;labelBackgroundColor=default;strokeColor=default;align=center;verticalAlign=middle;fontFamily=Helvetica;fontSize=11;fontColor=default;endArrow=classic;" edge="1" parent="1" source="70OCVyU23DANTi2EN0oC-1" target="70OCVyU23DANTi2EN0oC-9">
          <mxGeometry relative="1" as="geometry" />
        </mxCell>
        <mxCell id="70OCVyU23DANTi2EN0oC-1" value="Transit Gateway" style="sketch=0;points=[[0,0,0],[0.25,0,0],[0.5,0,0],[0.75,0,0],[1,0,0],[0,1,0],[0.25,1,0],[0.5,1,0],[0.75,1,0],[1,1,0],[0,0.25,0],[0,0.5,0],[0,0.75,0],[1,0.25,0],[1,0.5,0],[1,0.75,0]];outlineConnect=0;fontColor=#232F3E;fillColor=#8C4FFF;strokeColor=#ffffff;dashed=0;verticalLabelPosition=bottom;verticalAlign=top;align=center;html=1;fontSize=12;fontStyle=0;aspect=fixed;shape=mxgraph.aws4.resourceIcon;resIcon=mxgraph.aws4.transit_gateway;" vertex="1" parent="1">
          <mxGeometry x="441.39" y="511" width="78" height="78" as="geometry" />
        </mxCell>
        <mxCell id="70OCVyU23DANTi2EN0oC-2" value="" style="shape=image;verticalLabelPosition=bottom;labelBackgroundColor=#ffffff;verticalAlign=top;aspect=fixed;imageAspect=0;image=data:image/png,iVBORw0KGgoAAAANSUhEUgAAAGcAAACBCAYAAADdXKRmAAAgAElEQVR4Ad1dB3xV5d0OqDhaP1vbr7a11qpdVu33Vb/WokJuEsi+M4sNGUQc7CXZbMIK2ZOpIHtvARlhBWTJ3gQSVu4IYWjX8/2e9+RNTi43NzfJDdjy+x3OuSfnvOP//Pc7jofHd+gfPDxapaR4tNZoNI+mhGl+mqj3fTvOqOmUaNCkJRm89iUaNHeTjF5INGiUQ6+5l6jXnEjUa1YmG73GJoZ4RaUYNcGJgV5vJwS3/01KWNtnUzSaR8PCwh5huSzfQzm+Q73+DjclJSWldUrYH9oMC9D8IsXoZUo2aDKTjF77Ew2elSkmb4wJ64BRIT7gdQ0oEhyDBslGL6SYfDA6tIN4dmTts/9INGhuJho8jyXpNauTDZ5TEo1eUfFazV/jdD7PpWg0T+THvvVYiodH6+8weR5O0wRhwjQ/HRnqpU82en+eZPQyE4ixYR1BApPojsBwdi9BBRoljGWwLALHcseEdawG2fN6ssHrixSjV1KCQaMhWAPD2j75cCjxHaqVoCQYvF9JMnj2TTFoDlEqSDhyPwlPAquJnGjwQpJBIXSyyVsQl1I0svrgtTz4dwLC53kIIPW15bHcJIOmRtLGhfsixejN46hQi3qvt1MMmh98h8j14JoSr2//QqLJKzbZ5P01uZgcTWIlkIDVRCRRSexRoT4YF94REzv7Ia2bP9J7BCCzZyCyegUhOzIYOaoju1cQsnoFir9n9AzEtO4BmNrNH5O7+iE1wleUw7oUlVcrlZIJeF8ByutuitHrs4TQDpohvr7fe3CUeYg1Ub+PNHT0STF5rxkV2gGjQzsqUlINiuRmStCkLn7I6BEgAMiL1iFfHFrkR2uRxyOqnqP673yu5ohR3mc5uVFaUSYBTuseIOoh+GQCqUJ5ZhuSTd7WJJPPqEH69i88RLK1fNUpund/nmTUxKcYvW+y47QFUlJ4TY6e1NkPmT0CBQElYUlMdx8C2BrwdAJoSiGlkkxBm0fVqNipjkg2eC4YHvzuL1ueSg+hhjidzx+Tjd4LaE/YYWFP9IobTFCmdPUTaopEIyjuBsOV8iiNrJtnqkoCNaGTr5AoMlO8wXP6f5yzkGj08kwxee+kwae6kMAQKHIpbYdQUw8JFEfA1QAVpRX2i/aO7R8e1M7vIfB2y1Q5Qt8+cGSIzxFKizT49JzGhXUEDbZUL44I9F25JyQpKlhI86gQn/yWodQDLjUhpH1gitH7WI1rrKf76oXJXfyqjfzDUV9NBb2wt57tLp1g9PufB0xKt1XHtIjHiCCfdiNDfA7TFaakxOuVmIKuLYlDbmwqkR7me4UxOmT0CDzElJDbKPYgC0rRan6fYvTZTmCoygjMyBBvobupxh4mcZtbN9tPgFJMPusfJE3dUhej6mS99+dUZXSPFWB8hNFvLmG+K+/To5vUxe9enK5dJ7cQ7UEVkmTwTEwxen9Dr0xRZd7I7BX0by0t9kxBlUwXO8HgZU0yeWWkGN/5yYOib5PriTN5BaUYvC+JOEavZIkZ4f+7q7L7wInSiiCVAfTIEJ9/JBm9TiaZPI1NJlxLvzg48J0Xk0O8VzGglHkqpkb+04AhUMwkMHsgkqnVydORIT63kozeY5ieamlaN6p8joMkGTSD2WAlJeMpkpT2HPef8JsqbXJX/5q0kwSIanykyedfyQbNp3Gmdj9rFAFb8uFEk8+fk43exyk18XpPIfLkrv9Yqake1Evt5KtkPKrTUASINEgyapYmaNu/1JI0d6nslDDN95P0XhOZ9qcOpvvMnFRLxjFiiOAhuORktrHhCgNyGKIgRifCg7Hh1Unc6jEikTQ1ei+KD3znRZeI2FIPxeu930kxel2jE0ARZ66spdQXiUOJpC3LjVTSKS1Vl325ZLZJXXyFZuDwghx6yK8etkjrFkC1JhiUqp0ApRi9Cob4PiRPLiXg7f9KMnhnME9GdUaRzo5Ukpj2nWvubxKHA2kTInwfaDArVTNTTvEGDTgGRcmV92W/GPtwkI/ZazKpsEEhPhhp8kqc+jCGveN1mv9LNnpVyICTot4S6kwAExksuJFEelBDCrIvEzv5Ik7bXgx1EAB7YNQAUbJpiwgQ6ZJs8r6dYtKEPtDJI+SGRKPnWIo4bQ05RnCUm3NmtcBwUkYH5Lq5fElY+zPVFgk9LqwD4nWeGN9JGZXN6hEoJNj+efm7BtDOfgIgMZHE6HU0wdjh1ZYyLfeVmxL03stJBk2p4A6jF9K6U2qUIWDZ0Oaea4GhB+SlqLMWBod18uAQdgqzHDpPLIiPxFdFCdg2uT8WDeuB/Bg9Mrr71wsS38+J0iK1k5/ILSqqziv/gag3Ts5LNGliyMkMOIXUVBvG5gIi35fAjCXn6j0xpat/vepEvtPcs1SXnAwSH9wOYyJ8sT61L25syMDdnUWo3JqLK6um4mBRAlYlx6CAIHXzFxrDvm4JEG0k7U+yyeufSSavoBafyDhM9+7TSUbPbYpP7yVmxHDyhX0Dm/qbRKJKIehxOk/QVc2pHuxqapnO3qMNYZ2UllEh3vgkqB2y+4TgwPRE2L7MRdX2fHGu3JqH2zsKULUjH9c3ZODIrCQsHdELVHU87FWuZDDSiY5Ekt5rN52o+9SQG2+0oiMg5oNVB12OvBdnxHD2N9khAhOvU+ImEs3ZO835G0Fh+2n0RwS1w8hQH6wc3QeXlk8WoNzalieAIUjq49b2fPH3q2umYVfmEBT1MSK9m/997WR/MnsFCmdCAGT0jHQjFnWLWhgW9kiCwWuUokc1Yj6YVAfNIRLfrQGGTkb1HDZ6gM0t19H7os3RWiH1SXqNAKawbwQOz06BZXO2IDzVmBoQR9e3tuXD+mUuTs4djc8Hd60XIPZDiQU9j6XEvvVUXaq66VesVvtUgt7ra1bEbICYnOGGaF0CQ++PbijtDPW1u9UZQaHjwhFZzvAcFvguJvfUYkfWUKGqSGyqL0dA1HePz1PCSpdPxvL4SOEsUBrVTMH+sW+kW5JR09VNcNQtJjHI6y0aOHpPSqTc/JHN+4ERqXgR1NUXU6g77so16yAoTC1xFs2wgHcxrrMfNkzsi7I1aYK4lfWosPpAsb9PVVe+Jg0rk6KR2T2gjqPAfjBGov1J0HvtrktVN/1K0muG03enzZnW3b/ZASEbTekYF1Grygi8SNG4SSLrgBL4rvDC1oz9CFdWT61WX42TFHtQ1L/pPFxdk4Zl8ZHCwVAzDqWW6a0Ug+ZfTHu5CZLaYpKMmi00bJwT4A5HgMCMj/AVgSzVGW0N4wN7taDupCvXQlKitEjvTklR1Bdd45VjPhCg0Ouqz9irid2Ua5ZNFTd/cFdk2zkzSmDLwN2roJaqbrjqr3v7Oa6VSTZ5CU5vbtBZC4ynsDPMNFDs5SRDV0Cwf4ag8J6SiFTc4vGd/bFm/McoXzsNd3cWthgoaiDvFBfh5LzRmPlRaJ1gle2b2tWfNvVqqu7dp90Ai1JEgsHbV3gcRo3ICDTHS1OAURKmQmI43GD0FoZaEtie8M5+8x1yJaf1spw4XXtM7hmMjZP649q6dBFEtpSkqEFRX9/ZWYRdWUOQH6OrowlyejFP2PGfCXpNqNvAidd7jqS94YgnCdFUY30fMNULnZo63MA4SA58cQ1PZqwJ2zOG4MbGTNzdNR30wNREa+41XWx6aA252rLelYnRdcAR0tPN/1+faD0/dRs4yQavNZQcpm2aqtLsgaHU8BBZAALuYu6M5YiJ5hG+wqUf08kPMwZ2xr7CeFi35ApQZGTffDAUV1lxs+vGPsKNrnalHbngTPtcWJKKWR+F1QCkeG5BSDR4nXfLxPhYsQpNc55u9MTOvsiPaZwLLb2y8RG1qkyqMwJO7nemJgkay6DE0pMTI690IIwaFPbrhCNzUnCnuBD39s4UNoUANRcUqkECbN2SI+zVqQXjsL8oQUjl5ikDsC19CEoK4nDi87HCyWDwynekxMj6Kb3bpw6oAYfqmX0ZF9Hx3vDA9u2bLT2f+Gt+laDX3OMMzsYOQ5OwUmIS9IrxlxJDsBk915ebk5JEUGhIlThBmUXKMhgIZ/Y2YuXoD3BwRiLK10wTxLEnkCSUK2dKQNX2Apg3ZePk/LFYN+Fj5H4QitHhHcW4DmOkof7vYGjAuxgR3A4poT7I6G3EipF9RIbh+voMAaq0cSzrxoZMfDagUw1A7FdWr6Bv43Ttk5sNTryxw3siu2r0apS9EcBE1nWXJTAEmjktPkNOsjf44t0oBZRkgwbDg97DsKD38ElwO5GcZIKSx7CAdzDEr60IjGcM7IKvpicIwjZFrfEdEvX0wglYNvJ9TOgSgKEs3/8dUc/wwHcxPPA9AQrbweuh/u9iUMe/YmCHt4U9njO0Ow7OTBJtoFtNhqD0lOQOB52Bmn5G6/6ZbPRa12xwkoyeYVQ/PBwRsqZCFZElMEzDyLlsEhgx1BDeQYx78Dn796niqOrGhHojXtce06INmDmwMz4d2h2fDe0OgpD3YRimRupqOJrcPMS/LUaHdcTyke/j8qopIovckOGW0nR7e4HIqxVnDUNalA7DAt8ToJAB6ARN7BaI7PdDUNS/E2YP7orPhvXArEFdwZxcVqwJE7sHCgYZXM0oixNjcGHZJNEGll3xRZad9OgwPqLjubC33nqmWQBxxTOBYcrGmW2QRJZcTxsjAZFnxjMsSwz52gFD4Pkuc1+JOk+MDOsgOPjs4lTcWJ8hOshOXlufjsurpuLUgvHYmx+HFaP6CC+NapNSRK6ePqAzTi8cj0q7jLIEQ32mtJSvTcfqsR+K9D7LoKRO7BaEz0f0wraMITj66ShcXDYJV9el4+bGTNEWqiuq0gtLJ+HoZ6OxO3c4Vo/7EIX9IsD4ikMPdFJsX+bh7u7p2J05BFnVgSlVeUaPQPOggHf/2ixwEvWeIznqyRkoDYHjFJjqyQ/TxPSpumNAQiKrJ+2NCHxPJCR3530Cy5YcYeypu6l25EGVQSeABwlNAm2eMlBIExOag33bCikjIR15UhIc/o3HjsyhILjkfErfkqTeODZ3NG5uzBLcf5d17ShQxnQctIOeGdvCsgjgsbljsGFiP1CCpBd5de00TP/AJGwP+5sfo6tKCunQu1ngJBi8MghOQ5M4nAFDyaE6E6OaDiSGg1WMdajHs94PwfF5Y6oNa8NxCjmfhFPsxXihbmgDqHYoac7ByRXvUTqoGhm8UhrpENzZUYiqRsZJrIsMRKDomJSunCL6UrY6TdzbMKaPWJRMcAqj9d+Oi/DNaSY4mllURc48tYaA4aoD2h+p+tRnvsvhYer3/I/DcXbxBNFB2gu6spLLbQ24yCQMiXJ1bTpmDOiMjZP6ifedgcOyKYWHZiUL+8ExndvCMbBjCtYt61dfO1GbEijWYdmcI+o5NW9MHdWW1s1/f4q2GWM8iQbPhQRHruNUE5bXrgDD4NVRQpPvUpoITO6HoTi3JFUAQyPKuOXe/jm4t2+2ct4/G/f2zBDcXAc0OwKJ5OPKKcIpcPacBJ1EpMqhauQ9NZh8/+6OQtwrmVXbhuo20Qur/DJPBL6yrIbOlMhP+4eLnFt1MH8jvYefvsnSk2jwWshxEEfzthoCRjoAjFXuAzVKi2k9/IVrmh5jEAacHSYh2In1GUMx/uNw9O/UEYO6+CFtUBdsyx+BW1vzBGDk8PqITwK76qlJgt4Hys4i3CuZjfJ16Vg1dSDGfRyOQV39EBcZjPy4SBycN1oY+nt7ZrrkeLAeMs7m1L5icghplxel/Xt6j4AZTQYnQee5iEMFzBirCUy9yQCT6kp6Y+ozgWF8VN88AN5P0LXHxO5BwhsiKBz2zRraHX985Rf43hOP4dHWj+DJp55Cm8cex2OPtMb3n3wc//fqS5g2qCvMW7KFdEniuuPM+mm77pXMxMnFqRjSLQCvvPATPPU429IKTzz+JNo8/gTaPNoaP3z6Keg938SmnOFCokn4hrITtEcnPhulTAoRWkeH3Ejt1zlRQS83CaAEg9c8Ruf2akkCQxDUoEjjzzPdYuGJqWIgAkxJYgZ5VHhHkQah6joyfwyC2/0vHmntgSeefBJt320Lb39vvOPdFl46Txi7GfDmn96Eh4cH2jz2KN5+/RVsyBomCEmCNhccAkObRSJnDu2GF577kajrsUfawKejD7Sdg/Ce37t4z+dddAzogNdef038/dn/+j7iIrWCsei1SYAcufGUzuvr0jGjj0kEpXSpC6P1lpyo4I+aBE6i3ivb3mYQGGaDHQEjwNF7CiNvP2WIwPBdlpcS4oNNUwYIFbWjKAF/+t2LorNvvPEGsrKzEB4Rjscff1zcIyDP/vIH6B0fhZSkOPzkh0+L+z/+wdNCiujqNhcglnFl7TREGzwF+KzzL//zOlKnjYNf9w548gdP1LTlh8/+EPGJ8UhISBBtbN3KAz2D38MVDlEQ4OopVRIoNeOwnUvjeiFTTMakS60nAy/jBJpGA5Rg8ExkslEtOdzVgh6YvcQowCipGbUKrLmmy9zZD328/4L3g95D5fZ87Js3Gn957SXR8T/98Q3s3rUT/Hfs2DH89Kc/Ffdbt+YGgx547EePYHj6IBzdsQ6B77wu7j39vScxZUAXkSZR2w01QRq6prRcXZ+BXtp2osw2j7RCfGw4DpRsQsdIDVo/2gqtPFqB7WjVqhW8vb1FG//2t78hPzcHTz3RRrz3vskLN7/Mw5EF41AYH4WLqzhHoa7nR9W2PW0gpnbuKBwDLieZHms4lRMT1K7R4CTp2ndVg0Ng7FMyEiRKEjMJlI4aQKpVGtUb1ZyId6L0MGjegubNV+H7tkLkP736MnZtXic6zf9Wr16NZ599VhCDRBHHI63xq/Y/x8oti3HnyBf4yNQejz36CAZ28RMc21TpoTo6vjgVfm3fwDPffxIFI3ri7+XHMXTaQPzgle/XaQPBee2113Dv3j0FoHt3kDd5NL7XprUAqZPfX/HGKy9g3IehsGzJFQ6Mmjkqt+bjzPyxWJ4QiRUJUZjTN4we7ze5vYIbnwhNNPr9T4rJ+x+0EwwU6wXGoBHpfC7XcGRn6AAk6jWY1CMIl1dOwZa8EXj6e4qq+M3zP8LqGZOAfyodrqqqQkBAgAKIBIZc27oVnv/Lf6NHQhfcu3YBtq352DszEaWrptaoEjUhGnNdtS0Ph+aNwYE5Sfjm8GocOrQL7SLfxtO/eKoOOGQSqtvU1NQaRrp34xLG9O2CR1p5CAny+fMfhEPB4NhRGzjbR9g3qtJVU7B+ZCyyewZtnBaje65R0pMREPB4ssHzHAPFeoFpYA6AcABMPiLFfmBGovCy2MDcT3ri18//BJlDuuHu+X24WnENX5/6Gj169sBjjz1WlyitWuORxx7BS54/R/uebXHy1BHcO7QKd4uVDAENuiNCNOYeJejujjz87dIhzFo6A/8b9ip+/Psf3MckVLHPPPMMsnOzcfHqJVhuluPKziWI0b6DP/32RXyZN0Ko2Qbr3qo4IVdXT8XCwV0ujw/xCmkUOHw4yeA9WW5eJ1WYPFOVMQ6iZNB3t1dn/E1Vx7nPHNdnEtD2ZY4Qd9qIK6sn41bxTFRdPokJsybitx1eQuvvtxIcSD0vD3LsD3/1X/hd0It4K+wN7Ny/A/dO74Lti/Rmg1JDxC3Zwuv69to5TJyRitf0v8YrPs/j8WfaoLVHa6UtrZQ2EaBHf9waPtHtsHLzCvyt9BCur0+rnQvX0ARF/r16JNW6OQdbJ/ZFWucOaY2e8C62ADZ532DcIkHhmcCI7IGDtaBUbQSLqpAZgHmf9BLRvdpo00bc3Z6Hqj1zUVl2DiMy4vBr/+fxQtvn8PTPnkKb77XBY08+ijZPt8GzLz+D3/m/KMB5M/R17Ni3HXcvHIRtU4ZbwbFtL8K3N69gQtEEvBr8Mn4f/CJ+9d7P8b3nqtvzhNIeMsqvND/F/4b8HovWLcS3pcdwm/3ZoSRAawB3JNFbcnBj6UjcWD5aCZa35uJQfhyXVO6a2tPvtUZLT7JeM17Ok1YD4yjnJiSoOjXDQSqmzzlKSK/ovkZvzoK1+FPcuXYZk2dPxR+CXxYA/Nb/l3jxnZ/hF395Di+1fx6vBr8kjt8G/BJtu7yFw8cP4c75r9wOjnX7dPzt5hXkL8zH6/pfg+34g+4lwRgvtv0Znn/rJ3ip3c/x+6Bf4bcBL+CvXd7CFzs34ZvSo0rGQp0PdATMl7mwbszA+fTOuJjTS2QXKrcX4FBRIvKjtFUZPQKiGg1Oisn7TQaOcu80mQy1H0YgMGIBUYSvkJiMGCPOLBovDOB9wLDxVCU7ZuLetYtYumkF/hz2Bl7pqIBBovxB/5IgDonx+8Bf4Tf+L8A0QIeKGzdgPb4dlW6WHOvWfNwrP4ete7fhz+F/FPWxXjIH2/Oa/uWa9vza93kEfeCLM+dPo+psCWybs4XKdthPCdTWPFSsmYRzU0JRNqsvCEzltnzszx+B6b0NyI8Mnp7Wq5G78zJ7mmzy3kxQpCpTA0NQeDAHx5mWI7SemDWkh0hmOpQY2Vih5/Nw6/xBnCu9iIghJrzc8ecCCBJFffwu4EWQIDmfZ+Perduw7F/hXnDYJkry6RLcvFmB7p90wiu+z9dpg2wPJZiMkpKdhNu2SlgOb0Dlpsz7NYPspzxvzceNZaNxYVonVKyZiFvblTEpLicpUMZ5TmZHBjVuyi5XtU3p6p/FGTA0/gRG2hWmISgt9OjiOPEhxAeLB+pxbsYA0EXlaKAzbqrcnAXLwbWikwvXL8KbIa/hpQ4/FUR5Negl8CAwv9T8twDvSnkZrOWXYNs+XUies7Ib+zcSmKDfttmwsfgLvBX6usO2vOjzHAL7dMDXp46h6no5rDvngv1oqD5KydUFI1A2pz8qtxeCXitn72yZ1BdZ3QPEqrmcKO2ARjkG3Kg7Nyr4C4oek6A8GGzyzNmWYnaMQYPsPqHYV5SACzlRuJTZGZb1U4VX4rTRmxXVZrl4AhUWGwoW5uHPEX/ELzQ/wguaH+MXnj/CL71/gk5DQnDg6AFU2m7BfGST+6WG3L0lW8RP5gtHYbNVYd7quWjb5U3RBraFB5mE6uzLPV/iVmUVzCeKq5lENf4kJcX+zCGKBSNgWTcFtq0cJMwXw/Ark2LEGp/ZfYwojDEsz47Uu75lclovww/yorTlRTF6ITnMRtOF5hQlenH0yIr6dcL5pZNwe+cMXJs3BGcnm3Bz1fiGweE4yuZsmEuWwny9HDcqLNiyazNSshPRK74b+oyKQf6CHJw8ewLWytu4ee6IIKAgpH3n3fCbEmDdvQAVV6+gwlKJ4v07MConGb3iuyI6qSfSZk/BweMHYbXdRsWlk8JmKvbGtVjLsn5KjYQRnEvLJuHTfuFilLSotx75UTpLXnSwj8uOQVGfoNepxrhzBWMXSgzTMdwpnWouxaARM2Q4FbaquBDWjem4kNEFNxYnCoPnVHIEQXME91n2r4S5/DLM1ipcvX4Tl66UorSsDDfMVpitt3Dz3OFGE6Phuh0QdXM2LCVLUFFeCrPtNq7duImLl0tx6cplXLtphtlWhYqLJ2Dd+VmTVasMK4rTB9XsqU3aznrfiMKo4OT8WK1rK+Hyo3Vhs/oYHQaZtDmcypT3UTiurE5Thpm3F6F83lCUzx2Cym0OXGiHHE6AcmAt/gwVJ3bCXHYBFdevo+J6OcyXjgu7ZN1aIJ5pEsEd1ukAmOrnKumsFM8WaqviygWYb1xDxfVrMJeeEWqVbndzpJdx3rlF4zHjA1PN8LUEpyBavye7m+7XLklPbox+7Jw+pnrBSY3oICZIyKFm25f5sH6Rgavzh7uk1uoQm7ECj+1FsBbPgq14JujiMrNQ57lGErtJ727JAUGybSsUbbHumAXbtgJUinim6e2h1HB2z7K4SDEySlDkQWbnMHZOtNbgGjiR2rUzYw01BciCeKbnxtVunG/GNZZMSygimwfLhrRmcjoJ0HQiNAmQekF3X1s4jL5tSn+xjlRNS3k95wMTCqK1eQ2CszYg4PHcKO2Fwt5155vJgmQWmquTs943icndNen7hnJM9RKifnXjXoI/+HpIm73Zw4SdUY+TSXryXBRrINOXNQhOUTfdr3Mjg//ubPmHlJ5PAt/Dugl9XZqW9O9O5Ma2XzIsA07O/qwPGIJDhp/9vokJYOf/cqKDgmbUo9LUaDNDMDZM7JgkZt1zYKmxHfiPeL56zp15kxKUcj4B565dWJoqtmfh/jnOgCFNGdTP7uMCOLmR2ni6d2ogHF2LvFpksLA9nFXDnBq5RbqMD43w1el52sKaowXVKQfSvp6dLLZg2TjuA2ye2Fessqah5545jmjn6B6HsJ2LjYeHR25U8GJXJIcVUL1xWxFu8MOVACfnjxPgcOxcgsQzQZNi3qKgcYYmOZhJSfXRQuCwn5xhs3h4d6R39cO06sMVabEHiNLjFJwUj5TWuZHa44UxepcRJ4cQoARte6R2DQCXVpStmSa8LgHQ1lyxbrNs1VQh7hI0t4NESdmcjWuL4lE2ZwCuzO4nzjeWJDfevXcBTIXp8sVqNtqMhlSXPRiOfjsFJ7dH8PM5UdrbzpwBR4USIA5Pjw5Rhhm4NGLjxH7YmT0MxZlDsXpUH7GHGecPc/Wx24GpIWYeKlZNQNns/igt6C0AYjbYZjcrxh313y4uFHvhzPootE5Q6Yg+rt5zCk5hjNab+4u5Wpj6Odog/k7v7o+xod4YE+ojVrSldfUX4k79uyIxSiT+qhwNxNUQuHnurpL9ZZYiRyQbGUS6Awx1GWJ61Zppypy06s+bqWnR1Gun4OT0Ch7kqr2prwEEiZIk/q6aNy3FftuUAYJY9nO81J13y7WIuZwPXzSlHrab87a3Tu4nVFmdJYaqyL8++ji77xycqOA5011wo51VUO/f+H007qPTW4+vCuLEHIMH4iS4SSIJpLQzh4oSUBhrcJs6kzRzCk5uZPB+unTyYXedaX7sNaEAABYsSURBVDBpk7goix+lmPlhiNimkd5Oi0uQG8Hh7oVnF46rSfm7iz6ynHrBmdxZ++PcKG2FTM/IF9xxZpkcauCca4LEiHl6HxP2MDen2sKxKWqmye8wJ7idsZBrNo6MdGXlFCwc2g2ZPZQva7mDNuoy6gWHY9kFvfXfqB925zWlhgt7ZZlitmi0DhvGfSDW7zude+BG7icYlcX5CjBrMmHbyNFQ5wBxner19eliEzx+31TaT9kXd53rBSc3UvfBjFjD391VkbocDnFPiOgowFG76ewkQVo4rLvYnoTRdpMloSEAmb0oLoBtWx6si6fCMiEBlklJsBEgJ8tKhGe2dlrNJqwtBQzpVS842ZFBeTN6G/6hJqo7rqW94aIsqrUaT07l2RAgrj4+UJQg5ru5NVAVoBTCtikHljmpMI+Ng2XwQJj79oMlf4zCDPVIDpmldMVkzBvYpWYRlDtoUl8Z9YKTG63bXhCj+1d9LzbnfkaPQDH3gDNC1ZKjLpMcyWPD2A/AJOLtHc2TItqTyh35QjIIgjlhGMwDBsAycIACTPInsK5MV9SbA6kjMNxwdcaHIW73ytT9Vl87BCc/tsMzOZHBpfURTl1AU675oSDOHFX2v6kdBXRUFnU6OfXcoglgFN4kKWKmeNk0WNKSYR42GOZ+/QUoApj+A2AZMgjWT1MdAsP6aGP25X0i7COl2lE7W+KeQ3CyYk1vFvTWVbZEhbQ33EKS4HC7fSZLG6qH2zKSUXZlDRXzi7npqUu2iOqJ6istBeb+A2D+uF+ttAwYoNwbPgSW2RMUOyMC1VpngPUwwNw04SOng2MNtb+pf3cITk5kUM8ZsYY7TS3U2Xt0nTlrlBuucq61K+CwPKo47j67PD4Kl1cqm3O7vGp6fRasn6XCMjUZllEjYEkeDvPoEbDkjIJtdYai7uxUGVNK3PWWu68zq+ysTy31N4fg5EZpJ0/vbfi2JSplfMM515zzJvY3cEFy1O0gQDM+CMGBwnixBYtLWQXpLhfn13hiwgZJF1oFjIz6T88fgzmcT/aQgGGfHYKTF61dXRCj/6eaKO665iap3Nyb27Y42qTIlXoYtFLVrR0Zi9Jlk4QdapQtorpz4JGJPNnmHJTkfdIi6RhX+qZ+5j5wOJktJ0p7zFVnQHpV6kKdXXNdKRdTjQpVvsArs9fO3nH0N9bL7wjMHdAZJ+eNEQufGgWQSloIFO3LtbXThH1h2XKXJ0d129/jwJj9PXf8vg+crN7a1wpj9FcbStvIeIUb29HrcqUxdAa41J3fpyE4tD8N1eOsXHpOhe8b8MWEj3F87mixVQodhcaApKixPBH0LuWm3Q18yMi+PQJIMXfc/QDdB05ejD50RqzB4kxyJDBMv9B+EBxXJIDEpDrjUnm5v0FzwZn1cRg2T+qH4owhKMkfIVxusWOUC/MXFHuVg0vLJ2FVUoywLyS2PQAN/aYd5dGcvjiq4z5wuOyanpozYrMDYidCbqPSiM9QZvbk7rDKFl/cGddRgxpzj2DP7huOrVMHYHf2MOxIH4ydGUNwZGZy9eZE3DJFyXQTiJqjek4DP2B0av5Y7MoehvlDujUpR0Y6ERjOHW9M21159n5wooLmFUTrnKZtZBDJb93QLeacAWdgsiHkKukMcGU2pa65nEZw5g3qIoi7O2sodmYOQXHGYOxIH4S9ucNxfC53GZwovjNwY326+JoUJ2BwifmZheNxYHqCeIegLhjWXahZV4hm/wzVM3fAEtLTSO/Tviz17zrgLAwLa5Mbqd3tKN/FlwgA3V+6wVywy4PqSdiOhhpVvYCXgFJ6mPh0pjrVjazvmh7b4hGRODZvLPYVxAlgCJAAKX2w+L07eyj25Y3AV4Xx4thfECeA4zNC0gSgQ7BgaNPBIZNRtROg+tralPt1wMnrFfybwhjdmfrAoVcivg5Vvb0KwRFpf1cMOycdhitfliI49SU9G9MJSs7K5FicXz4VJ+ePx56c4XUAqpUkSlPtQemi+uPfubU9z4uG92iSWmN7JdNS1buiRVztYx1wOLtzeqy+3CE4/FhCN+Xj2SSuPOituVIZgaUKpDPAT70w6emwHhfdUmm4N07oi4srpwmAjs8bK2xPMW1PtQQ1eCY4WUOweESvJoPD/rN/ZFSu9Guuupb0rANObs+gwdN7GyodEU2mXeSmRGJHD6PyibCG7A0r44IrroLjewSHneDHGGRDGnum1HDcnhJxaWUazi2bIgA68fk4RYIaARBzdvz2TWPboH6eaSj2iZqFfW0uQGS+OuDkROlyC2L0f7MnNn9Tn0pgKDVUaSS2K8lLNpTDBHyH74r3xI7sTY8N+KXBmR+F4NC8ibi0NkcY+LOLJuD80sk4vWii+MYn1ZdQYQ1IEe3SivgeyOrig4zOPsiJbHzmmTQSq8lDlQ1r1cA19boGHK6YzonUrXfEzVIlqfe/IaEZs3CChj2Y9o3h36kSpTNAcLiNsatJT/vycnoFIbtHADbmTcLNa2VieeDVY3tRunMpLqzJw7mlk8XBPZ9ph+i9OQKpOG0Adkzpp7jh+aNRvHAW9qyYj5l9uyKnZ+NdYzIht5ORTpJ9uxv7uwac/NjgXxZE6w7az7YhYbnEXXK9tDX8XbP/ZwOeGstQ79PGDSeakvRk5wRXRwZh04wMVFRUwGqzwWy2wGy1wWy1osJcgfKDm4WKO79sCs4unSz2eqY3R/UlpIlgZQ7BV3Mn49T21Sg/dxJmlnWrClV372H38nnI4/dvGjl2Q2YjEwrmc0PcUwtOVJDXzFjDefsZniSs+PqG3QZ4BIdfwqVubEi/sgwaS6kWuVdBk5Ke1OXROuxYOAu2W1WwEBCzuc5hrbyFssulOLOuSJGgaltEm3Rm8UQc/3wsvv50FM5uXw4+a62sW47FYkFl1W3sWjoXeTF65Nh94ssZ97OftM0MNdzxEdoacLJ7BfcuijFU2EsOiSilRX2mihsnPhvZsN0geMylSemj1+ZSbKTy3MjFRdznYP0yVN39BiSiPTDy99fHT+PotqW4sHyicBQIjDzOL5+Cc2vycf70CVi4p4EduPzNslnHoS/XY2bfLvd9g80pQMJr8xVOD1W+s2cb+lsNODlR2gkFMfpv1YEhOYEur+R4NTi8Fl/zUBGwvsqY8BSBa7ULXgOOC+/mihk5gZg9sAeO792Bqm++dUhQEtVms6G0tBQl+77C/pKdKFsXjwtLx+DcMsWbEwAtn4JjW5dj/8EjKC8vh9Vqrbe8qnvf4uLJY1gybgjyooIUNce5DU7aTdXGVA7pI2JAJ8/WRy95X4ADD49WuVFBCyg19iqKdkVyvARHuMNGusOuJTyzegaJkU/5/uhQekQNq0Nh+HsGYmFKP0GkqnvfCNvgiNvlPe4PumfPHuwqOYyTO2bDvKIHLi0bibPLpuLcssk4syYf+0v2Ys/eEpw8edKpBNIOVd6+A4vVgmMbZ2Hd6C6Y/SE/yxwk2i9jLUlMnkk/3icDKl+lb7znJ8sT4OTHmn5WEKPfXti77ooC5ookQdVngkWj7so3Q9lYtRvNcujN2DOBbBDP7By9MUrx2sxxuH61TBCJxJIg2J8pAZcvX8b+/fsFOHv27sXefQdwfUN/WJeHo3RZHKjSju5Yiz37DohnvvrqK5SVlTmVHrO5AharFbfufoNbZQdwZX0Cdk0JwfwBgciPCRLq2R4kxompEb5C49ARcrRTsLq/9V0LcPKigtvOiDUe5fYe8kF+AowqzV5qSFwBjsn5DoWyHKpGJeFZm1WgsVSrT/ksz8yX5fT0w5wBXbBr6Wew2GzCiyKR7AGRv2kj6LlJqdlLYPbuxe6Sgzi2cwlsK8NhXR6KS+smoGTfQQjgqp9pUHpUNsliu4NKWwWqTi3GjXUfY980AxYPJkjcB0iZysU+ULXxW6WUHHpuDErVfXT1WoCT00vbZXqM/qp6BRuJKj/HpZYaAY5BI743wyidzzmrzJHdoi62Bye7VzCyuvthZp8grJ86EGe/2l6tUuq3CRIcSg1tjZQaCY4iPQdR9kUcbi034WTxHOzed0gAx2eo/g4cOOCC9Kg8QosNFttd2K6dwu0jubi+KhYlUw1YOEihQ1bP2vEgOkEcklfm5zmnkyMaKuBEB48oiNHdk2kbElSmW+yBkeC4OljGspiBVkugfdKTo4/5vfywPKkLjq7JhuXqWVTevqvELyrOlWCoz1JqTpw4IYgtgZFnSs/Xu5bj6qZ4lOzbL2yN/JsE6NSpU/VKpbquOte2O2I/HtvhItxeFYKyeaHYPsGAOR9rIQGiw8Rv89AZsld9jsCwv1et1rT5hSpnQO1xOAKH9zj3zJndkBURHMZDteBUJz1jlKWJBGZOvxDsmj0aV49vxa1KMyy2KpeJRam5cuUKaD8oCWrCy+uSvXtxaO+X2FOy/76/N0l6yDDWWzBfPgrr5kGwLTOhak0EKldF4MyMEKxN0IsvQ6Z1U2a2su+uOk+Sbjx7ZEQG/HdBtHb1dDt7Q+6uJWitvZBguZpVJoDqGEcmPXMitaAqWzUiGGfmdIHt2OewVd2BxXbbZWCk1NBu1AeMAlAJdjsARoLHd0+fPu1yvWaLDeYbZbAWj4F1qQHWFeHisK2MwO01Ebi5OAz7ppnw6cdaJBl8RNqKXq+a8K5ce2T0CPjT9Bj9PvUKNtoD2hsJhP1ZIbBrszVljCPLEMMFnf1R1Fsn1MD1hWGoWh0O27pIWA4Uwnyj3GWACA69LWdSIwFwdt69ezcOHjwo4h6WWUd93adWaQOtoq3WZSHC0ZDgyPOtVRGoXBmBC3NCMW9QAIYHaRCnrf74RgM2Wg2aR3avYG1hrOGS9NTI6TIFIQmqPjPGoRvt6mxNlkWPhWXw3bhgL+TFBOBINjsWDnZEdIodXREOy45RMF85DnOlc5ujlhoS1xnxXfkbpefs2bMNAEN1VgXz0SWwrohwCIwEiFJUtToC1xeFYe3IIGWoRO9znyOkBsP+2iM3MuiD/BjdHZm2oY1g2oEcrgZFXpPADLBcyY0RaHWsNEKrwdSePjhRaMKt1Qp3yc6I8/JQWJeFwrrxQ5hPbVAkyFIJR260lBp7D80VIBw9Q4APHTqEa9eu1ROYVsBSeQfmk+tgXdVVaWe1OqvTB7t7tEP8+/5MPdJ6+mBS58Aah8EeDPvfHnnRIm1Tg6jIrHb1cwiMBIg2hN5HQw6BALo6kOVwQUGfjrjyeagwnOSsejtFkFZ1hWVfhtDtFjspklJDL8sdUiPBovScP3/eofRYbn0jGMa6upvLwMj+sa9Uc6VzQ/DluGDM7adFZg8ybq3bbQ8Mf3vkxejmqZezczyHri8/DCHBsD+PDe/gknEjOMwi0LEYEazBupEBuL3WCSh2XEcpsmz8CJYzW2AWriu9OCUYpa1xl9RIcAj0kSNHcP369VrpsVhhrrwHy7FlsK7q4lSVSTDqO1uWhaH0UyPOzTRi5yS9AlLPWtfbHiCPwt66rTPfr93ojrGOcH1V8wTswZlQz4o0+8IJDoduPwnSYOEwP1z+zIir8xVbU18H7rtPKVoRAcuucTCXnYSl8htUmK1gXLNz585m2xoJjPp86dIlWIS7XAWztRKWr/Lrl3J7hnLy27xUAYcAXZ5rwvlZRuxM1WHOx8FCimif1TT0KIo2nFZ7alRXtCn2gNT+ro1T1AU5uqaKHBfui/lD/FA21yTAYcOuLwyFU7XmqIN0GFZ3h+VAESqulaLsmhlfHzuBvXv3uE21Ua3t2rULZ86eQ4XtLszlp2HZFg/rcsVZuY9xHLXTyb2KJbXgkA48rlSDtHWcDjM/UKRIBqwe+dG6W3KArSFPjQDRUeBoHwnvCBD1vayeWqwYESQaQKmRDeI1uajRAK0Ig3WZEdZ10bAcmg3L1XO4Un4DR4+fRMm+fQ3EOkq+TS0h8pqgEORDhw/j0pWrMFdch+XoQljX9IJ1mcktUsO+Mv6RNFCfSY+yeSacmW7AhmQdCntz4XIwPJhPk3kuacCZsKuVlLq2h260KzMbmcJYm6AV0qIGRjaq/PNGqjc1R9KjW2KAbW1P2Palw3qxBNfLS3H23AUcPvw1Svbvx96SEuzdWyKSnHv2KHk0giCuq5Oe/DtjpKPHT+DS5TLhfNhOrYN10wCFCViPut5mXEtwLs2pZVJJC3lWQDLiaK4BS4dq4TFTtdEdpYGzaepzowmYGChrYOoPgVkVpxVc4ggY2RhyUuOlR4nGBdFoj5bohZG2bR4I25EZsJzfiWulJ3DpwhmcPn0Kx44dx5Gvj+Lw4SPi4PWx4ydw+sxpXLp4HuWXzuLmub2wHp4J26aPYF1qdJu0qIFlP28sCoUzcCRdKEVUdx7qXQg5TMBvEiTWE+MQHC5RV6su9TV1JYFZ/okOF2cba2yMrNT+3CzpqeHiau+PRF2sE/bBtiEGlTsSUPlVNmxH58N6YhXMpzfCcmYTLKfW48bhRTj7RQaOLRyGr7LDcCLXT7zLHJmaoO68JjjXFrgGDulEpvawd6NTO3WsV6UxAB0X5ngCugSG4khX0ZnEsHJyEJ+hkWyW9NSARIli1B4uON+2RA/bEh3EealBJCdJfNsyI8o/DcDOpP/DzqQ/ozjlbRzJ8GmiDVRJcZ123H+ffaSn6orkSCYWNkdyP20Px1rqsze8zxE+ObQg3+OZEsMxjdOFBiGSsoKGzk3y3BogRC3HO46pbiwKwb5JXtg1tp04Dqb5gPcqV3VqUcmhpmgUOGpC0yHgOE194NAWMfVN9acGhpHu5/21OJbbOGAI3MXZJtxY5E7puZ9ra8FS/kZP8eBUb+wc0w67xrTD/sleKP/c2KLgsA2NBkdNZF47zUZzeXr3ujM1CQyDqEOZ+kZJDI3e8TwD1ibocCw/RCQJ7YnYUr8ZqR/N8kXx6PeE5JSkeuLyZ/oHAI5i6BvSJvLvHhIcxji0Gxx3qE9yuIpN7UZTlc3oo0XJVAWYhuyMrJSeyLkZRiwfzvySFsUTDQ3n21xWZQ1LDu3SyTz/GnD2jG+PC7O0brR9ddtAe2NZFo7iVD1O5BtQ/rlrINUBh+kDZ9kBzo3mMyJY7RWMgt7BKJ6gE4bdVWD4HD25dUnKYFtGdy3WJepRsSRcANRS0mJf7rnpQQKc3ePaC+k5WxTYouDcWByOmR9qMa+/Fjsm6EXq5tqCEKeOUy041bPkOd5dn+RQ5XGaDyWMAG0aqWswlpHSoj5vGaN8SozlZPYIxoKBWlyeGyaGEeyJ2BK/ycmX5uiEzSE4tD2UJEqU+zzHWulhRvrq/DAUxCiZaM7WmTcgCNtTA4UpuDrf5DBzUAccqiw5MGYPkHCjOaWJg3EcXo7TCgmgilIT3tk1n90zmRkJZUCPKpVTiqgaTxaFPDBwCHjZPAOk1BCcY9m+oC1qEXBWReDyZ6E1QyxkymndAzE2whuf9vfF4Rwdrs2/X9XVgMPsAAfZ6gOHYIkJcpFawenMAzUGGDoAh7L0KIpV8kbS1rGhnHK7P53ekmPX193SQwCuLTChJFUjVBrBOZLRARVLmpCQdcEWckT07MxQwdSy3zQPtO9xOg0mdvXGygR/nJ+l2CNpIv4fx0Onbi4ptLUAAAAASUVORK5CYII=;" vertex="1" parent="1">
          <mxGeometry x="316.39" y="210" width="47.91" height="60" as="geometry" />
        </mxCell>
        <mxCell id="70OCVyU23DANTi2EN0oC-3" value="" style="sketch=0;outlineConnect=0;fontColor=#232F3E;gradientColor=none;fillColor=#232F3E;strokeColor=none;dashed=0;verticalLabelPosition=bottom;verticalAlign=top;align=center;html=1;fontSize=12;fontStyle=0;aspect=fixed;pointerEvents=1;shape=mxgraph.aws4.user;" vertex="1" parent="1">
          <mxGeometry x="406.39" y="221" width="78" height="78" as="geometry" />
        </mxCell>
        <mxCell id="70OCVyU23DANTi2EN0oC-4" value="" style="shape=image;verticalLabelPosition=bottom;labelBackgroundColor=#ffffff;verticalAlign=top;aspect=fixed;imageAspect=0;image=data:image/png,iVBORw0KGgoAAAANSUhEUgAAAKoAAAFECAYAAAC3T6XEAAAgAElEQVR4Ae1dB1hTV/u3Qzu/ru/f9uuuo7XtZ/u1tdPNXoKQBEdbZ1utdqq4F46qlZ2QBNxaJ8pM2JCAAu6BCglL3AslCSiu6vt/3hOCMYaQcZPchOvzXENuzj33nPf8zrvPOR06MP8YCjAUcB4KSKUDHq1dM+rxsoTgp2uTA5+rEA37v9KkoJeqMoI/KE8P8pClBw6TpwdPqUjnLK4QB62Vi1jbZWnswjIRe5dMzD5dLmKfLE9jXTuwzR8yBQMgKaIXJEf2NnilRPW+m8btez2N2wev8+m8PqdE3H67xFG9U5Iiv44U8fouzhD0n5sXP2Bcfpyrf0Lk16+lRn/5craw10tiQZ/nE/gDnhbF+z9ZlhDcCaDDQ84zGkxPCAVOir95Xp4Z3P2oiDOgLIXFqRCxf5aL2MtkIvZGeTqnQJ7OrpCJ2A21OYPhXMEwOCMdBqfzh8LJvKFwIncIHM8ZTK7qrGDyKROxYN8WP8gSDIDE8F5GgVQXxClRvQGvtOjeIIrpA+m8vpDRfGXG9oVsfj/IjesP2cJ+IOL2gbSoPidSonpL02L6pIlj+qxMi+w7MyW6z4h0ngtbxO37RabApfv+Tf7/xwy5A1FAnsr+qFIUNLpcxBaWi9l5cjH7kFzMOS4XcRRyEfuOBng1WcFQlRkMlRnBUJHOAbm49asiPZj8Xvy3N2Tw+xPOaQwX1QWoud9TCaj7QFp0HwJsMbcv4JUS3fuf5KjeF5Ijex9Pje5TmhLZK0/E67dFHNNnVqbQxWvnRrcuDjR0zt3UmlT2Z3Ixa45MxNorF7FvycWcf+Ri9h25mHPXEPhM+e3Q9gBIj+1nULSbC0IrPXc3Oar3P8mRvf9JiezdlMbru1sU0y80T+g20LnRQIPeVWX4PCbPGfqqTBzcU57K/r1CHJwuE7Nun5UOIyIauaMp4DOm7JHkQJCucoftYV87EkgfaGtqdG+iXqBakSPsB6kxfWrEMf34++P9n6TB0DpHE46lsT6XiVm/ysWcv+VidjmKatQha7IGtymyjQGjbhkU8+VpbCha7w1pMX3N0kGtxCUfAKC570Hg5gr7QTq3b4RzoMROvTiaMuiNchFrgVzELpeLOXUVYs4/an2ydT1SF3DmfMdJcHBbAKTzHErMmw/gqN7/SAQu3e00zI73WoDQh1G0y9LY7AoxuxgtcASNOWAz9xmZiA071nqaP+htuKfM5X7Wfk4c3SfH8RBj4xbLUwP+VSHm9JWLWUsrxJzLKNLRDWQu2Mx5Di3+w4mDIDvOBRKN8IdaGzg2rz+qd4OY19fLxkPvGK9DZ3u5mPWHTMyWVKRzrp7MHWJzDkpAnc4BdDmJnFQXNQb0qK+mcnuvk64Z8LhjoMdGrazMZM2Wi9n16EZqy39pDoc09hkU9fkr3CDFQUW2MSA0poyI2xf18qulaf6dbQQB+r4GQ5RyMXtMuZjdgA53Y8FkrXJHkwNJ6LNdivrmiYkBCwRpadIgOJU/FMpFQdH0RZCVW3Y0NeDlo6ns32XpnLIz0qH2Ee9aESfk4Bj+TIvp45RuJ2M4KJZBkGYJB8DRlCBAdxzSBS/0tlgZEvSrviyVPUYmYh9DrmgNZ7w53Bb1UYyxGzugzlguKbI35MS7wrFU1n2SDUPKZSLWdvohyUotwuhRhZi929bWuyHgIrfYuc6rfVr1Ojp4ttAFUD/XRy+ZiH3zcFLQu1aCBj2qrckNflYmYk+qTKcPB8XBwCiTZKUbyXRyRg5pSp/yVrgSUa8PpM337srSWFx6IMoKrSgTBbphviaKD+ReBghh09/KUoMgN961XeujGiDvWOtlJO3ZFU6pq8pFQctkYk4DXfRQzSQpT2O1pORpBqs9fqLhhLq5hi5tfSKjKU9jDbcCP7NPlVUZwS/KRew0OumimkFAkGJani1zRuk6CXZt9DXJ24LjKRNzxKcTgp+wD7IofGtFWlAfmZh9DP1vGnDQ4VPtYkEfaf92D1JMst63daBJIMUxRBpWZnCgLDWgG4WQsX1V6tAnR0lHTnosJYgsEaErd7NVuzA9Eddzmcs8cBlOhZgTaXt0UfBGXFBWnsqaIxexKcucN5eQ+p9jQya/P6Cf0FaAoON7UqJ7AyZ866eRcYYuclWZmH2HAtjYtgpc+VgpZi09K6WXqNcMBvoF0T/Y3nVSMa8fGkKUeF5IqFsUNNq2SLPgbVUZPs/I09nrMQQqT6duHZIGZJZ+op80b4VbuwYpTlCcqJjDYCk9Nc8jV5WL2fssgI7tHsU172gBonKt6QCdPpGTFqzxaNeiHkGaE+cCZWn3h0QpGifl0aSg922HODPeBAnBj1SkseNrc4bQEqQ4ELs3+rbriBOCFKWJ3HpBln9kaezpZsDHNo+g4VQhZsfjhgx0FPcoltD1kujgq0MtNcYKV3u0FRK1iMngciCZiJ2GNoptkGfiWyrSWFzcJYSeIA2GAwn+7ToLCjlp0XqvVpNLKBL7zUYZ+4QsnYaJKmUpQb/JRbiJAz31UnS9pMeqdyuxlCM54vOJ4V/Dns1+FnFKU8YWrf+ytEAfE3mddYuXp7G+kovZN9UWH/2ASiz85e03yQRzaVHl0WwxZArgzC2LNkqFmMOF0A4PWxd9RtZemsF6vULMPkPHiBMSGQeH5JSGO/auJeZycYw27ScgtS0DwWQjmYh9nDY7CMpE7AOYpmfuzLPmc6jU797o0y7dUKiPpsb0Adz/yl6SDpexl+ew3zGS51mv2DExi0/lpmJUghYHB9fdI0cxlxs56nMIUlyAhzkMVNLU1LpO5g2B8tTAqdZDoBE1HxOzvTCf1NTG26p8WSpLHR5thzF8zF3ABXi2onVr70F1sELE2mUEnKxT5JzI/0m5iLOHriJfo5ciZ3FUrmhOu3GDYFyAp1kl2hqAbHpfxAZp6IBHrYPENmqtSGPPpWvkCUF6cJt/u8uGQpBKVriRtV720kn1TQC0EyrTgzzagBT1P8vTgjsfz7b/ZhD6iIL30BXV3nYxQcmB+7G2RhN73ieTJo2zlHoktlGjXMwqsfWOeaYQOm+5a7sS96giFK7xoCVINeNWLmLtbANW1P4sT2WPkYs5tzUNoNvn7k2+7SpEipzUlAV49hqvcjG7GtM+qUVjK7Wp94EKLqKT/qNNeLTy8SAFc4wQh3wmoheJNmnTgLZ/izgXq8XBPVuBFrW3q0QszvFsejr2cYCkqz3aTepeanQf2LvFz26OfDMmxLUyMSeYWkTqqQ1zTOUidikdw6SoL+9PaB+peyjqSUg0wfRVomaAizK9lyTQp7On6IEWtbfKM4ODTuXTMxEaRT5GYRxSfJsQjECQinj9oDQp0KbJJVQAHBmcTMSOTUgIfoRaZOrUdiyNdYaOlj7qy+iWcXaQYv8yYvtTuraJCgAaWwcmqFSI2BlXrGlQlYtYQXQU+UgkPInE2WP5yEnx3FRcgEdXQ7YtwKqZXPBh3PdWhwdS91WWHlzYVkPs9Xuuk+eYYrQJ1zbhnqS2zCWlejxxgsnSOXWyzKFvU4dMrZoq0oZ8LhdzLlHdcEvrw45jjiVyG2cV+9i3gtUeJNJmKb3o8DzmhRwRsd/Tghd1f5aJAufRcckzLndGF42zghT7JVnljpuOUWZ52xuseKSnPJXlQh06m2sqywp+QS5i7aTbtpCo7yCncV5u2ouERB1VH21tQmASdUU65wfKgXoyI/gDuhEL24PJ0M7MTTEMTDe6twY+U+7jmWDlIs5CyoEqE7Fm4O5spjTG6mVFHLJduTOKfFyAZ8tVolYfKx21BdNCK8XsVZQDtULEqqKb2D+03Tm5KUoIBCkdfdVUARqNKTxxkVKgHs0I7EqUX51ZQVWjza0HT8xzpsPIUM/GnfRwT1JnBimON/HFi9hHKAWqXMxeRKcMfo1u6kwGFPYlIxZDooOcUifVZUY4EctF7HpKgVoh5lTRaYajszud18+p3FHYHyq3e9QFBt2+N7s5b1AG1NJE1ut4MC5dOoogRf3NWbgp9iNLMKB541z6pk1aY/zPF34DlAG1XMQZQSeg4hoojHU7g6WPIM1f4QrlabiUmQ0yMavlwu/3Ludx9GsDHnd53B/fsyMlYC0TBa2iy258FWIO4aaOfA4pgjMx4mvYHv4lca1ViL+B6oxRUJMx5r6rOmMEVKZ/CxVitI6DdADsHMBFA708kfWKxUAF6YBHZWJOsfYssOffyE1xnbqjif2UqD6QFt0PMmPdYOcqNhzZ+iPU5YZDY+EqUEmXt3GtAKVECBdz/4RTWb9DTeb3UJkxDCrE9F35ayxGEKgHUwNetRioR8SsLnIxu8LYF1u7HLpt6A7SpMhesD38K6Ka5Ai8YPfab+Do1glwJmMBXNuxBq7uWAWNhStBJY0DpVRo9KWSxoNKugIaCvDZFVCXtxTO5kyDk1m/QHXmKAJcVB3U6oJjcNwz0mFQIQp+zWKgVqYP7icXc+qtDUBj6kevQ3YcfU8swQmE4lwU0w8ObvweTqTNhQvZy0BVEA8NBcvJpynAbLtsHKjBuxzqJdEEuOdyZkJ1xnCQidS6Lt1Be1oyFI3ITy0GqiwtcBgdsqXQb4pJ0ZiPSUcjCjfFzeJ7Qk3KdMIhFVKB0ZyybUAaz3WxLnx3vYQLp7MmQmU6LheyyuERlITSMTHlaMqgXhYBFTdclYnpsVUPctMs4QBaif2kiK9BFNMfCpYHEu5JxHlBvN0Aqgt41H0bClbBhZz5LXqtWnKhN4EeqgECVSbmWAbUqoxfH5OJWOvsvfGZeu+oANpwUrTYU6P7wp51I+B46my4WriaiHZdoNDlu0a3JTpt9lSozhyp5UGwL2DxzLFycVAPizjqJWnw01Xp7CJ7J6Kg2MflF/YW+cRICvsSdq4KhnOZS0EhEYCqwDSDyL7gVeu09ZIYuJi7kLjEysV48Jn9OKw6edpCq/+k+JvnZSLOBXuHTnE5MCZq2BuomTx3OC1eRGvuacpEQE57JT8CqjJG2E0VoASoVRnBL+JOKOhkt6dOg3sp2cslhWI+nesKhzeObeag9NFBTQFl62WRy66Ai7kL4HjmWC0Xl23GHIG6P9HLMod/pTjofYzF2hOkeHAsJmvY/qRntS+0ZM0wOC1eSPyeShP9nq2DwzQr3hb1IHdVSuPhYt4iOJE1gbi3bKESYAjV4k0oysSsAHLArp04KuqmuLLUHi4pjCTJt4dAvYQPzgxQfZMA3VuoElRnoNFl3e3UKUlKkaWzJ53Kt9/SE7T2ce95W4v9HL4XnM9cCg2FK2jjatIHKGvfQ5XgQu4CqMr41ipSVe2fZzdZZPHjw7J0zmJyPKQdOKrGJWUrbooWPXLRvetGEHBiNMnaQHCE+tEXq5Dw4Wz2NKjK+I64tahSBdGbVC7iXLAcqCLWOjwWkKqGmVIPdgKP5LaNpd+L+EUrEkMYcLaSe4CAvZIfCWeypzTjwXKXFi5FqRBzjlEAVI7YXs5+dEnZYg8p5KRp0f2bY/KO5BO1n0F2JT8KqjJGWux/rckajIv7ci0GqlzM2WOPzdDQiCpa720TbpofNxCu5Mc6mOPefiBVqytxJDR7Nmc6VGWY7xUiy6UzWKstBiqeW2kPZ7/m4DJrin30j2L63eU8nsnpdo6gW9qijagOoP/V3LxYYv+IgpZZDNSydPYpewAVz+q0Jki3hX0Bh9CBTzKcGHFvCagxf6AqY5hZdgzxKImCfrIYqCiCTTGAqCq7Y62n1VxSmPF0bOuvThMGtQRkVDx7OX+Z2e4r9NHLRBxPi4FKFfBMqQd35Uuz0q58qVF9CUhNzaynYkCdtY4rEswVMM/Pigf4VlCx7aQpAKOiLPpO8WQPa/hOkZPKE0MYfbQV95O5E6legh6A4SZLXiKt0zlKXOrkcBy1MmMwZAmoj0Th+qWalFmMZU8xSBHcuJIAQ62mMiq0fSrEbFl5FgUrUE19uSXlcYbhLiGUh0sjekFl0lQrrFeyt4uIHu+vl/BIIrapY09ynEVsKaaSOhRHxRmG53dSbe0f3fILE22yAie9pyoIoCZztMkcFf3zMjFnQ6101OMOBVQ0ojL4/SkDKq4GPbRpLKOTWhWkyNXjoCZzjHlATWP9aTFIsQJT2bkl5Q8k+FNm7SeGfwUH/h7T7rOf7nE966kJmGF1PPN7k4GKW0SVpbHGORxQd67zokQ/RR1319pvGJ3U6pxUDX4Eam3WWNOBms5RysRsL2qAKrI8Q8YYLktCprixhAnHK+rXZXuBdHkgXMnnMXqpDYGKKwKMGWftMhVi9hnKju4pE7HO2iKEeiQ5kBLdVBwzAC7ncRm91EYgRdUC4/2ns/8wB6gyPPiZEo5aJrJNrL/kb28LnfzqpGfN9jm20M2Yd2hEPwJ1oslAlYvYWZSAFCspF7OPWntNP/pP8fBZc/2nmE+KoVHcCAL3d2IAZD3DSR9tkaOezZlqElBxzCvS2HMpA6pczN5hzXxUbDCKfUtDpke3/MwA1IbiXhuwaqBONwmoqE7KRJwBVAJ1qzWXomCDLc2UKlzBZnRSO4EUAYvLrC/kzjMJqMj8KAMpViRPZ8VZ8yQU5Kgibl+zDClUFbJiPdTZ+U683l6be9HxbzVQQ40GKqqSMjH7MMVA5czGYwC13QpU/Y0gxQRpc7Y4R5CKovvDucwljF5KuFocSbhBHR2XeOOugrhZ8NUdqx+8CtWbCDcUqvdrtTTlEYFal7vYaIyos/o5CygFarmYM8Fa6/pR7O9c62kWN8VlJNVJ09ppNpQalI0IyB2rSGDjSh4XLmQtg+rkGXB0689QsmYoFKwIglyhD+RpXfh95yoO7F03HMq3/QHnMhYTdx4CHIFt3hLxOMDkaWMZGO6MIhMH9qQUqGVpQYOstVMKxvazheYsh+5F1t7jWnM6ikLrtQk35+XDxewIOJO+EA78PRpw0zactJhrS67IXoBeEP3BkN733cdyKJnUz/YCafwgqEmeCXW5Uc1LdIz1HsSRZdTGABU3nJCJ2Nel0gGPUgrUanFQD5wBxjTC1DJ4IrTYZP20F+QKvAkxLRVZ1AAKuVu8mqvl8+BM+iKoSp5G2kfdNkBxUJU0DQ5sGEM2DU5Y9jngmi/MZzAWlEYBN+Jr2Bb2JbkQtPLtk+B81l/N/TO0riwOcBtLY8afLL1PZ6dZvNeULsqPpga8fCrfOjrq3i0D75vhxhLzdLp9t33ECaLRA3EFK+5PVbJ6GBSuCAJRzAACIHSXUbUdEO7Bms51oRyYhuiNXBZBi1u9710/Ai5k/QWo0+qf3HGgkPKNAqpmMR9Ah4d0sWbRd1lS0L/LRexraPgYM2OMLYNiH3NPTXHyI+Fk2yeZqUcZK8ZaL4ecE/VCDNGWb5sI2XxPwJAtBhvUnO2eyN2xkm2i+GztvXGEO2fwXE2e1IaAaOpv2Meyrb+1arjiKS3GjL1MzL5eljLoS4tAqe/h2uTA56yxtp+cvGfC5mc4w4tWD25lRrc2yJbeV4s7THA5n7WUcE4EDOa5ol5oaLCzcZO1rL8oaG8cXMoJB3sDFftKDm+L84e63OgHdjfEcwLw0DZDYCXMTsQ+dJiKo3p0wVqWEPy0XBS0g+owqqlLTjJ4bmTLHf2ix1JA3nueuHcKlhOuibpm6eafID/OH1AvxIEyVgIgBzqRNs9ioKKacTZzMYi55hid9xtPhiaWsb8hw0AD7kz6n/cFWRCo6pWorWfbEUNKzNmgizFKvuMygXIRazOV+0/hzNq10cfosCn6WcsTfreayMc9+K8WriIn41UlTSW6Zp7Ql4h0YrC0wT31DTI+h2qKpRML23ZKFEpUDH3vscc9BKs4xqXZ0FJLHRT96pWorQNVJubcKk9jTaAEmLqVYBpWRTprMZVhVPSfolvKGO6Eup80PoD4+Cwd9Naev5AdBsWrhxBRnmJxPqyai+GZU4c2/ki2Um/tvcbcR734eOocYu3bA5SG3onjh2oRMS4LVpLjgdrYobq+XMR+RxdjlH0vT+NMqKV460kcSENEwN8QpHh26OVcqvJL1a4k3BAN3UiybZMgM9Zd7eoxg2saar96X6vvyL6ixgCytTIIVFxBmxZtXpjZUBtN/Q3HQ3MlE19tL0BdHH27yFGPZ/7Y6sFrKEXL0ljUhk11EV6RwQ6k6gh03GBi39aBRnFTEn1KnmmxyEe9E631i9lhcHjTOHL0DhLaFJ3T1EElQF1HDVBl2yYSNcTUNhhfXg1AbDPSRONLxe9YB25ujDo3uqoQmDkCb3L4BvF2RPQi7ivMoDqZ9XOrm/zi9pJyEft3XWxR+r1azOklF3PqDFl0xv6GYl+6yr1NoCKRcN2TJdEn5EboyzwpCgXcWlJjORujchg/yPoNFqqA2lAQD0e3TGhT+hjfXnU0CnVoBCRKNgQi6pzoBz6yZQLUps4l+id6LdB/isnoeF3KiYC63EhyXcwJJ/ewTPm2SXAhKwzOZE9uFajoiz8n8n+SUmDqVibPDO4uF7NrjAWjoXIIVGOypdDKR8vS3OgO6k41KbMhLaZ/m64k4wdZPyj1PY9A3bNuuEUTDdUBlAalm8dZBFQNR8RgBGabSZcPAgxIILhUmMTSfOHENifah8+oClbAmewQvUAl9k06O00XV5R/35/g/qxczNlnCIDG/IZnVWHYNLWNDdBQDzq8aWzzcTn3XEet6XF4nxC5II6AGzkQZlYhx1DrUsYDTB/ozLmHWwgd2TwelBYe3Isg2v/3aBKP198Odaxe451AUCIYkTvisUMYVZJtnwwXs8Ohaec6uEayqVYRSUPliYPq5OkZeoGKp0cfo2q1aVvolonYucaA0VAZ1E93b/Q1mNaHro9cgU+zW8dQfFkNYJzNmPVzQhQKxWuGEvFOdE8jEzP0D77lwEb1AjOZDE0uY3/bs354i6qEk1gttjHW/zXZ0r1oVTDJhMJ8ANxfSx1oiCMTHXVzBDuVoNTXbkz1O58z+4GjflCCysXsczUJ7s+2hTFKfi8Ts3hyMeeuISC29RsCtWC14S17kAui0WMMYXEALufFEFGGnMRaoDOnXvQmoKNe36Cacg91dOSMGsMPTxDcs+47OJvxJwlKYDhXfQ4WTty2J7Yp7zalLAL1Uu7iB4CKYl8mZnH3x/fsSAkQ26pELmZ9XyHm/NMWGA39jifwGTrlBPW60k3jjALppZxIIhIR2LYwjtoCK3HbRNyL9WO4V72btXGqS2ugQFeafPtkAkxMgm4sVItte4JSf1sxJ2HJA0CViTnXZRkUbNTbFkA1v5ensb6SiTm3DQGxrd9wEV9rB+8i2NDtcTkP48j6Bxf1UPwNdVAM4yGXaQtAVP9ORG+zG0fD5TAxBQ2UvetHwsGNPxDdFFceaNrbWn+Mva8W3XQ/8yoOrkiioFyEJ1XfS2CSiVgHyxKCX9DgyOqfZQnBneQWAvXgNv9WuR/65NAB35rViSlmeOy4JF5dBwKGahDq1qfmkhrf4hfEe4ABCDwCHcOjp8QL4LR4AVkOg4kaCEwEFQGWHcWwsROA2nKYk8rVBeodmYi12Org1H1BuYhVrVaO780Y7dnT1t+G4vv5Qj/iKmmNeMdTZpNcT10wWes7AjKD6wo7VnJI0rIxOnNrbW8/9+N0gMq+eSA1oJsujqz+XSZirdafnIKJCGySlIBhtNqsceorcyzZ5U2zv3veCtdWOerZzD/1ikrkUtXJM9XLLSzgoqhaoEcB9WD8G2P6aJjgGiLcqwoBiUaKxlK/tmMNWRRHdELmqMlW1bH7J2Fci3sKl0OXidgZVgelvhfIRUHfnszTPcCXDZXpQ+FszjSol0STmC/u7kauAvUnnlJ8LmcWHNw4mohrBIuGE6IxhHodupju77SQ+PrQ5aIW88aJem0dUrNcA0GJy1d2r/sWjm39BcoSfifLLFB0o7GC70ZA4spNFNv0M1T06+y69LL/97jm86bYcDp/KFg1AUUfQDX3jm4e9Ibu+qnKjGHE2mt7cONIlAatdVy2oTZEvibxY30776GuiiE7jFBpQP3gZy/CIbEuUl/zUZFo2JQl/EbCf+jqwnAf6pDoxlFHUdSrONtus6MAhC7tjCM5qTXZwXjSiX24qQasFWLOZW09FZ28GJUwZTYj18KVlAjCyqRpep/FMsj9NP5RzElNje5L0t3SY1xI9AW55L71I+FkWiipgzi3beTgNqW/7acsAnU41OYGgzyV1VuDGfyEDhSvkdKuXN/fFSK2SJ2byobqjNHQIH1QZBszMGicYLJya0YK6qaY3oZ6476/RxKXDyZLoKi+tnNtcygQ/Yor9eq2xrShPZZRkXBzHDTuiIerzReOgaqACq4cB7XZY0CeHrwPE1DqcnivqqT8b5UF8ePrpYKfVVLBd1ela/6jD1eU35OJWZNxJSH6yy7nh1tVnyPuHuSQLVwSfYn2i744MrAbCuOgaddqaCpeCZfzYmHPmrmwc8UsKIyfAXW5qKfHw/U9a8jvrTGPtvsfB6eyx0JN+rg19ZLYeKVEUIrvaypZpb6KVoAin3+kIZv3HuXA1K3wmCjof6clQ6A6cxQDmlYCE20PKBXcy7g6kINe27kcalLCYLhfb3jumafJ9a+nnwLNhfee/ddT8ParL4Fg2ii4nItSyzR1Tt3nOJJBVS/h3lZK4+7qowNOCKWULwsNDX1YF1uUfi9PZ70lEwedP5szxSmA2liIx3njTh98OJMeRQa0Ni0CLmZzm/VeXMPveFwc23wuMwYK4mbA5z264s558PAjj0LHjh3h0UcfhU6dOsETjz9Orscff5x8f+SRR0g5LBs44DOQCqcTOjQWGh8VU0hxS3rD9ELOrZQKZ1EKTN3K8PCqclGg9IpkqV4jSN8suv+e4U7cX9Y4rmHqM6iPNe1aBchtNv85HmaODoCfB3uAT6+P4dP3OkPvj7vDtz69YOpIP5g1ZhCkRfxBOAw+g6A29X22LI99u757NaSE/wEB/Xq2AFzDwCUAACAASURBVPShhx4if3/1eU+YNiUE/pg6A36bOhNmzVsAfy1ZDEv+XAjTp08HFxeXFrAiYL/x7gUbFowjKoFxE7Zt+qBqoZAKru6Pj7deokpoaIeHy0RDeMrCSOMGDAe2cAUosXESPijyY8lly8HTflfTzhXQVLQCfuK4wUfvvgUvPPsvwmmQ2zzSfOHfDz38CHRovl564Tn45L3O5BnktKh3addJl79xEl3dsRyGD+wNL77wHOkXck8EHIfDhuJde+AX3nYYF5cDo/lZMJybAWP4WfBTfA5EifdBU1MTnD51CoqLi2HGjBmE83Z46GGiIgR7fEk4tCnc1RBdsB5VXuxQXUZI6fdjooE/1uX9ddtQQ8hvEgFcTl8GJ4SjoSYymFzV4Wy4uH0OAW6bz1OsA17JF8D6+WPhqaeeIKLuscceA7yeeOIJeOaZZ+C1116DLl27Qtdu3aBbt27QuXNn+L//+z948sknSTkUlzjoM8cEEIPE1u1v631n0qNhYN9P4NGOHVva2717dzh9+jRUnb4I/n9uB495W8AzdGvL5RW6FbznJ5D7QUuToPbsRWhsaIBr165BfX09fPbZZ4RW2PeHH+kIRatmA6pLbbWlrd+R89cXCLdSCkzdykrTfL46nzvnUquNKYiD+uxoOLPmF6heFqgGadRgOB4VDLW84aDIi7W4o62+Ww+40RWza/Uc6PvJewRoHTt2AhSFb775JgQGBsL8KCGUVJ6HtTsqYN72fSDIOwbFlReg/JwS8F91VRWMHj0avvrqK3jyySdIHU8/9SSsnvsDnM/iAlVcxpQ+aZdFTor6NYIUJxJy0eeffx5mzZoFt2/dhONnL4H3/K3g3gxSr/kJ8OUPi6DPT38CV7wXSirOwuS1EnCbsxl8FyTA8bMX4drVRmhoaCD95/F48J///Ifot+qJ6g9nMlrPctNuWxt/y3SxRen3koSvnziV9UdV60pzHJyM+x6qIzhQEzX43hUZDOe3TLc5SJfPGtMi4tFgeOqpp2DhwoWwc+cO4OcchaBlqTBg1iZwnb0Z3OZuIX9/FbIe3Odugel/S+F8nQLu3rkDFy9ehC1btsB///tfAghUEVw/7wH71s4jrp82BsUq/UY9G1UZ394fo0+dtAslgUgkIiC7deMa/CjIJH1BTuq7JA069/aHRx7tCF3eegOuX2sk5Uoqz4HL7E2k3Pj4bGhqBiqC9caNG1BYWAj/eeU1QDVozg+BUJm0zPL+FAhPKqTCtykFp25lx7O+T9HrbyuIh4spC+F49JB7AG0G64nY4XAlE32v1jGSdOtFF0v05G8BOWinTo8RTtOjRw8oLS2F29evwU9x2feJQu9FyeAeug2+52dC1uFaGMVLB9c5m4nIrFcoobGxkYjEs2fPwtKlS9Xcq2NHMniRE78lvkLdNlj7Oxp4M0f7E1GPk/Djjz+GI0eOwNWrVwlXLK05A/6LthNR771gO/T6aRl07NSJcEdUe1599VV4u0tXCFiUAJ6heG2FQYsTYV/FyRauimBtbLoBtXsy4HhKGNRLBK0GCFS4i/WOFYCfaJcY6r9CIjilzOZ11sUWpd/l4sDxeq3Awng4nzATaqIeBOqZNT+TThhqPFW/IUhTwn4nYHrssU5kIAMCApq5TBPEZR4gog4HxnvBNug3kQ+dnn4GXnv5RThZW0PK1V5SwcBF24jI/Hl5NtxsukrEIQ7c9evXYd26dUTEojrwyov/ho0Lf7KpKwsZxaFNC6HrG69Ap8ceg/feew/2799PJhO2Ebli/qFq8Fu4TQ3URUnQI3A8mbjoptJc+GyPQePBe2ESKYd9Fu+Va3HVRlDVnQPlTuJWMgC+ODi5YhxR907wR8KFxHmgyFW7+fSOa0FcxYXssKcoBaZuZTsTer+pkCL715k1yFG3zdHLUa9khbc5y/R2yEQOfG3Hcti/LrSZk3aCZ599FubNm0fAhwOI3JH9l3pQUF/zmLsZnnzu3/DoIw8TwwF1u5WrVsGyxJ0tYPZZkPAAl8EKN6wUwp8TOFCfL7C5NwCBKo2bAeM57jA+2B2KMpPg1j93WyYT6pnFZbXgt6gZqAsT4eMhk1sAqgEqcthuLhzwWZRMgIpGV86ByntAVSlBWZoFSonAAEjVUvJSyiK1yhcZDGg418YMg7pUXPb+oBRVFAgO6eLKKt/PZc88jYkg9zUCneeZEfeL/chgOL16vM246aUcHvj2/oSI+8efeAJiYmKI2EaQXm1shGO15wAtXMJNF26Hz0bMhk6PPd4ygGgw4PWu7w/gs0hdDoH6t7QUrl+7x1VVKhVcKxUTHVGvGqRncO6jFQW/oyFHwpTFK6Fx90ZQXTgFDY1qQ6ixsQGUqgYiyrGvOCnd52yAjo+qHf8aoKJa9L7vGPBu7uugJYnEAENaYV3K2tL7x9hAu+tzYuAEfxQxnIl9EhkMJ/gjHjCgUbe+nC8QWQWYupWey5sc3lSy+oFOoI6CxhRxSUUNhuowFijybHOILgImjz8N3nzlRXj26SchPGwZ3Lx5s4XLIPGPHj+rBdRE6Dl8FnR6/IkWoGoG8NX/9QPfxalqQM9PgNW5h+4BtbERVLWHbCIhjAe3AFS7t4DqyqWW/t5ougobpKXgMntz88RMhI8HT4KHO3Ro6W+nJ54Etxnr1ECeuwX+3FYEt65fIyBVXb4AShPH7uzfE1vGHsGKnLVOhHvF3pO+OE4qiTBSF1NW+V6T9u3nzeGw+8FaEAd1oiVqERDBgTNrf7PpgJIEi71r4PretdC0byso6y9DQ8M9LnO5XgFDI9QARC7jOn0NPP7UMy0DpwHq65+6tADVd+E2yDtUdU8c1p0HZfF6o8Sh8UB7UDya/Gw+H5TFf0ND3VloaFRz/39uNMH8rTsIUNGP6r0wET4bOQdeeKs7/PvtD2DAlOXgNX8bsfi/j02HOzebyLMEpKaubiiIAxT/tTHftEhVBOqlpPn3YYBE+Arix1sFmLqVAsBDl/PCrjXoiQWrCuPVftQIDlxOD7sfyAZEh8kD02ZdAlDuTwKV4koLl7l94xoszz5A3FAoEpFrvuv5nZrLNItF5DiffjeTDCoO7kiuCBRKFVEhVA0NoNyXCMp82/qDjaYNnhazYyWoao+0gBUlScLOY/BtVBoMmLURXOZsBfcFKeC2IBn6z9oMgUsSgZ++DxpUKmi4eg1U5443G09t66UPtEsiIOJf45okHBX1VC0vAKosiuzYfrqYssp33Du1Pm9ZCvrxHmisVAj1mRFwdsNku4ZMSbvQCNizlQwAclaMvCDYpq2XQv+ZGwmn8Zy3GT5i/w6PduxEAPu/wROJKEQg95uxEWQnzsG1q1eh4dp1UO5PBqUjHB2E3PCQGBpUStJ3BOuJ83VQduIc5B6shPWSw5C2R0a+V5+5oJY62L/jB9RhbyOMJ33jjq6pc5umtOipqPqh7qpdFqXeSfGS560CTN1K8WSLy/lLfsF8Q+1G3Pe31iy6736bnJACMXjfOwSgxAO/tPQ3pUoFi7btBAwjIiDRj4hiES9UCfDeoMXbofLUeUDDBI0x5aH01vt63/uobr8F9SHnlxdDg1KhBi36RZsNS02/CJiJOrPB8kmIeR05XLWeisaUYNQDxpSiIA4NVtv9u5wf+YVCEnvLviA0dhAFak5x/JB6wBqvwu0bTVBQWgNzNhXC1HUSmLA8GyauzoMZGwqAn7GfWM3XmprUfsTDGSYbFrShC4I1jweqgyJQ1ZaC6sRRUJ04Rj6Vxw+CsmQTqPAQCTO5qG4/0aA+tfInYkid2xhyX70kJzWff8R2KO3QoUNjtvAlpVSw217uGV0Ctf1doOYYB1JAVb0PGq7dgKbrN+DWjSa40XQNLl1REO6J32/evEX+VpYXgnLXJvrqpKZwclRZELS6F0UAbaF/QRxJSMIwel3a/XtwoTtNVRjPsylQ8WX1En6c4wBVw30FoMT9QHGZ9uFMwjEbGlQt3gFV3XlQIQfV9RObAor2XlbCh7N///HAHrGYL6ssFIy1OVCVO+I4SqmwqWU2OdoAES7DU4t19Bnilc+zXFdzNDpYo716PELoNrySFftfmwMVssOeUhQIW0/7swYBmDodz6hrXgGLrkt0bdocqET858eux7xPh+WqDPBtMna4AkEh4R+ChIRH7APUXN6HBt1UDBBsAgS6Mwo0pBT5wmiw9ipUQ7NAIRXuaM35T3cCMu3TGJnW/WxeVGndtVKGQIq/Xc6O/ZKuC98YIFoXgMbSV4FGt0TQsy0sWfV3yOA+psgXJOJKT2MbzpSjB4BsMQ7NLszDV6QrXrcqEI2pXCUVfKWUCi/bouPMOxwL5JgxpZIIN0FoB+vukmIMULHMlTze77hMxd6rMxkg0w7It+rz+NY5XdpYcOqWuyLle6skgouMcUU7sNhNLVNI+EpFZpR1V53qAtGY75fzha/VSwW70XdmDHdTYLyZ6pgz4xYzivbGjI8lZVDCKvL4YmNwY7cyV/Jityulwlt6V61qAUkhFWB067olBGGepScHx2DQlaxI24dNTUW9slA4rj5PsAuXruhLYFHk828o8vnhSqnwPAM2eoLN3HG5vm8dKPMFS03FjN3Kn86KfEFREDtcIRWqN43dpd7g9fo+svZo8aV0/n+UBcIacwnCPEc/gGO0UiEVboCEyCfsBjxLXgzS0KcVEuFvigL+RJCGPq6pS5kvPMIAjn6AM3dMFFLh3oa82H9rxtdpPlUS/hZc820uYZjn6EE7EvTJ55ffKIx7x2nAqd0RpUQwQ58OywCQHgA0ZhwwMVohid1z3doboGkDx9Z/X5HwvNryDhhDLKaMfYDdrJMmnXFGca89GVRZkS8wES37gMzSyY2S8Epu3ELt8XTqvxX5gmuM+Hc8sCKDOZce+5ZTg1O7c4p8gYjJwHJMoDbkxb6rPZZO/bdKIpjLrBZggEp7kCvzV7he39vWprGON5CW6oB0fx5Ff1174qhKseD567sZoNIdmLrtQ29NXQ7vM9pzQqoaCBD6sFIad56x/h1LahC3Yk6sG1U4oH09BKgFwnTGoHJAoOYLXWkPMKoaiJsT1EsEixmDigEqVZiyWj3KwrghenezZvIAaJsHQUR/e+KoiP6GHGFvldae77qKO/Odfty2XQK1sXDF+0qp8Ayemdm+QIkHMhhx4QbJZOlO80HIebHkTCcF7uFvJ6nTLoF6NW/Fy46176ruhIojp9eRU+zwJDs9F26vrsjlQX12FFzJCCP7iNalLIKLiXPh4rbZLdeFbbPhwrZZ9134+9n1f8DZdb+TDXNPLf8RTsSOJHuSap8+YkvQtkugwv74jkqJcDvpvJ04hCWDjOcX4I7Lp1aM07rGwqkVmmscOeLopHA04Cl3ePxmLfcbcoCY5nwmzYncNXimrL6r+cRuLIf75ONJNNoHOljSfnOebZdART21Pj+W68jJKfU5XDgeM6zlGBvNKSFUfuKJ3XicZ32ubc7xMgTg9gtUqeBnXL1qiDh0/021YyVcSJgFJ2JHqAGLXFD7xG1z/26uB7k2HUCK49BugaqUCtxVBcIGuoOxrfbhcTaKvFhAXfP0qglQvSzowSPijQUsEfNBcEI4htSHCyXtKe61+65W0wTuVvNZ0rXi+tz4N5USJ9rHCo+1yY+FKxnhcG7zFKiJ5JBTQ/BAhja5bIS67AnecKhLXaw+tZk2RyOpDcnGwji4IrHDlud0ALBSKjytPWud5m8EWUE84O4wF7fPIQYVnsSs94odQbgn6TvNwKk9Hpib0a7yUbUniDKfn60WKbruH+f5jnvaa9xX5BSWwuWgJJfGrUWOu7Gbf1QbjIb+btdAVRUI51zbadzeVYaIyPxm/YndroGqkAoCmR0BrQ8yKiYyArUuU9BdWyK2m78V0qjncN93KgjJ1GFdwCNQGzNWv9huwKnbUYVEcNORHf/tZYIgUB12jyld0JnzXSHh5zJJ1NblhlRMJgTqpQT+0+aMsVM8o5QKljJJ1A4A1B3xtj3anG7ovpTH98bzM6mY9Uwd1gU83bBj0/ZckXJfZwwq6wLM0gmMJ54o8oWXbAoMur2sPjf+WYVUeMnZHf+WgsWez+PW5/X5gnK6Ycem7YH98U82SARSYw+tsOeAtdd3k6BMobDApsCg28uak6j5jOOfIvEv4YOS4iUreLRovYQfRzfs2Lw99RL+BEZPtQCoCMzcGFBkR8LV0gy4XrMHlPmxlBmoODYKCX+izYFBtxc25vFdlFJhY3sVrab1G8/r4qsvBGheLFw9lgu3Gy/D3ds34c6t65QBVNMu9MoosvgudMONXdpzpYA/USUV/qMhjr0/MXu/YfcWaNi9ufnaBA0l68mlKloDqp2rAcuoM6GaE2s0ADL1syD+XkYV1lu8Vv2uXZvuvX8PtmULXCvLg5vnKwkgAQDu4n/N/+7evqGuh8J1aOqkIcFuu4CCri9VSgXT6OH8F0DDrg1w/eRBDQbg7t27cOfGVbhzvQFuK8/D7fozcOtSDdw8L4Ob5+Vw49QhuH58r861B5pqdt93Xa/Z/UCZG+fK4MY5Gdy6UAW360/DPw115F13795peX9bf2DbVLs3gVIqoIyjktC2RHClPpf3IV0xY7d2KQoEv9IjAIADLoDGvVvh1qXatnBi39/v3oHGvdsoBWmzRLutKhAyuqm+2QChoQ8r8oWRV3fEU8YZLFYjJHy4JpMC/HPLvoDU9/a7d0FVjIfOUbs5hfpYc8FOfWPE3GumAG6kpigQJNIqWSU/FhT5Arh1sRru3GjUBxmb37vT1ED0WapBikxCIRVegISJjnkiny1n0oXssKeUBYKNRA0oiLtrMVekysDIi4WGPVvg+okDNgem9gtv1Z0AVfE6yk/sRk6qlApvXM6O/dKW4+3Q7wLpmseVUkEyPQwsbT+ngCxjRqCgsWTrf02VRaCUompEneGkYQQYeFFIBX84NHDs0Xg8DBhDrLRNrkbdsCAebl6ohDs3rwGYYKmbBvC7cKdJBapdGynXRzUgxU+FRJh7usRBD+G1B0C134mbqikkgv30DbMKQJnLJcZfU1UR0WPv3moyDYcGSt+uPwvXj+9p2eFPG1hU/Y2MQCEV1l3K4nfTpj3zt4kUqMvhvaosEB6gnxqgrRIIW+LsjXsT4NrRTLiBvti72m55A4jU+Ql9q1dL00lwger4vS7Ar+9dBw15cV+bOCxMcX0UwMWACFZaua6MMdIK4gGjWQ37tsGNU4fhzjWFDiTVX2831EFTVTGoSv4GsgeAMXVTUIYcxMvopfogZ/69c/nhbymlwiO01VkNAQc358VkEVQTcqJBmce7d+F3vE8yn6g3knQ5qOY75gHXFwqy0Mti/qgwT+qlQH2e4COlVFBLKz+rIYDS+DeFVHCpIZv3nl5CMzctp8C1nFWvKiXC0wxYdXRkEyYF5plelvBZlo8GU4NBCjQbWLXNTmr6hFxNAItGBNv6k3hQJHy+QQIzP1JHAaIG5AuPOJyBZUcwNzv1d1A3CkxNRlGgPjca91qlv+vKjuDUcGwifQoEJy8zeqlR2KK80JWM0GeUtA4KmK9LakBGxadKKrzRIBWMpHwAmAqNp0BjtvAlpZRf4pCuKxtwW1SP6qVxfxtPUaak1ShwMTX65foCQTZZLEinrCsbANEQx8WIXr2UX2I1wjMVm06B+tylzyokgpXX963DLCf6pAjaCay4wZlSKjyvyIx623RqMk9YlQIgDX1UKRWE0TeRxYY6q0RwRykRsq1KcKZyyyhQL4ldppQK77ZXvVUlFcJpcUTZzpjJY4t4k38qiZ3y8x7htHHyVVP/ZRllmacpp4BSIhiLQG1vvlbs8/mMaNgjmAYH4mfAwfgZcGj5TCiJDZHv5c96g3JCMxVaToHG7Nh+SolQ1ayvtYsoFh4ftFswFYp5IS1XSewU2MULObybO/V1y6nK1GAVClwt5H2okDjp2VY6hhpmRR1aNacFoBqwIlCLuCGlDFCtAjHqKt0rmJ56RhQJqkKyiM1pOWv1tiVQosVJ7wE1BIpjQ6r3c2d3pY6qTE2UU2Anb/Ju5CpVWxeDsxpY5zOiYBf/fpHfAlReCJTwp1zaJ5zZg3LiMhVSQwHo0OGhEl7IIc2gyTYuJMdAGnKUO9pvCokQdgumPSDyNX3Gz5LYKbdLhFO/oIaqTC2UUyAv9ud/F8WGyDWDtjN6EhxdFwpX8vhOwV3RFXV4zVwo4k42CFQ0sPbyp/WinMBMhdRQoJAX0rmEF3JcA1T83BkzGQ6unA0XMmMcGqyoxlRuWdwmSLHP6KYqjp7cjxqqMrVQToHiqCkfF/NCzmoDVfP3HuE0OJceDaoCG0aMdCx1S9SMM2mRsIs/xSAn1fQVfalFsdMGU05gpkJqKFASO8mtmBdSrxkwfZ/n0qMczhNwJS8W9i+fCcXce/5SfX3T3DsQNwNKBFPmos5ODWWZWiilwK7YkMHFsSHXNQOm73NnzCQ4mRLmUGA9un4+YLv19UffvX3C6egVWImb0VFKYKYyaihQwp80Tt/A6btXnbCE9mBtKIwH2aZFJoEU+7pXMA19rOLQ0NCHqaEsUwulFCjmhkzDQdIHzAfucUOgksa+VjSeTqWEoavJuP5oOf9Rly2KnXoe96KllMBMZZZTAAeliDclDBM0HgCl1iBq/7YjehJUbP6Tlpz1YhYX9qH13krb27p/YPkMgITgRyynLFMDpRQoiZz4RFHslA2mABUHG91X5RsXkiwktMoxhm7viBYmm5SumWeUK6o1wB5dORtKBVO7U0pkpjLLKbA/fuyzRbyQ3N2thBZbG1C8X8QNAXRfYZJH2YYFcCI5jIAVj160JWjRdYZ6qaUgxT6hL3VXbMhvllOWqYFSCuzg/vpiCS/k6C4zdDp9IEY9D11Cx7erjS5rAxZBejk3Fg6smGW2uNfuB1r+xdzJayglMlOZ5RSQcqe+XsQNqTPH+NAeYN2/UTXAa49wOkl0Qd3xUjaX5BAgeM0NIOBz+DyKeawTs6Hw3cjdddtgznekQwkvRGU5ZZkaKKXAHl5I5706ScTmDHBrzyCANKDdLZwGx9bPB3RxnUoNx5OZichu7QRtNaDjSBlUJ1AXPiuKhJptS0k9CCpT/KSttVH3Pta7O/r3lyklNFOZZRTYExXydelKasSm7oDr+67hfKgi7I2fAYdXz4WqhMVQn88HBKPmQpBezIyG2sS/4Njf84kevG/5jJbMfE09+t5h6T0E6h5ByDeWUZZ5mlIKFMVMHnloue2AqhdEzWIbc0XVS0Qw235y80WNSNf7XgMurF2CqZspJTRTmWUUKI6d8icucDN1IJ2+PHfyMcbxbxm2KH26mDslmVi6BriL04NST9+LYkPO746Z3JNSYjOVmU+BIt7kanN8qE4P3tiQuzu4k8abT1nmSUopsC92Kq5nZ0S/DlclkbrYyavKEkI7UUpwpjLTKbBz6bQ3bWnxOxIXRsu/iDvp5F7+lP+YTlnmCUopsCMmZBBZfqHDTRwJUNZsK9Jmd8xUF0qJzlRmOgVKoifPZwyp1tUeQpvoKZtMpyzzBKUU2MkNyWAMqdaBitx6X9w0qOL++hilhGcqM40CRbyQs4whZRiouI5qF2/KVNMoy5SmjAIlkRNfKOaFNFlTx3OGunEiF3FDzlNGeKYi0yiwKypkQDE35KYzgMkGfbi9KyaEWUZtGsSoKV3MDfmtiBfyjw0G2Tl8tNET06mhPFOLSRQojJm8igGpYf30PvpwQ+qKIid+ZhKRmcKWUQDXSRXzphTcNxCML9Ug598rnAbF3CkLmYV/lmHPpKd3Rk3sUswLkTFANZ6j4lKdIl7IeWn85P8zidhMYfMpgBuBFXFDGhigGg9UpNXh5bNgB3fyTPMpzzxpEgWKo0N+ZCJSpoEUgYrx/+KYkJu7ub8+YxLBmcKmU6AsNLRTEXfyGqJzMXqpQb1Un8TBSN5Obkic6ZRnnjCJAqVhIU8Vx4acomp5tL7BdPp70SHK/GVTmL3+TUKeiYV3C6b3LKVoDbzTA7J1iXO3OGpytImkZ4qbQoFi3pT4/XHTTRZ57RiUD9Cq+VSVc0XRvzNb/5gCPlPK7hcwIKVi0uGCyJKYkDBm019T0Gdk2dK1c2cxaX2mW/v6gE08ALyQO9Ko6czJ1Ebiz6hisH9sx+qk8IpDq+dAUYzh00H0DQxz70GAo+ekKCak0KgBYAoZR4Gq5IjvalIirlcnhcM+E/a1ZwD6IEC1aYKcdWfkRH/jRoEpZZAC50TxT1Ymh6XXpkZCTXIEVG77C/YwBtUDRpI2AE35u4g7uRRCOzC7VBtEoRE/Vm9b2qsmOeIGghSv4ymRIN+6FHDTsrYOCTNlwNpr2RJeyM1dMZNHGjEUTBFDFKhODd96WhxDQKoBK+Gs25fB3rgZDFhb95caxXWbE1YOZ0VOfMHQODC/GaDAmS0R717I4j8AUg1gqxLD1DqrhYPVbrlprHpXwpOpkVCdGDHOwFAwPxmiQE1SROHJtOhWgYqARQProJ4z7Nsr+Az1G1UlNKDIlplrQ6Fq+zKiSqE6hXSuSPiLOfTXECD1/VaTGsU6kRplEKQazoqfxzYuJNs+Mnrr/Za+ZgvMPXEzoHRdKMi2LCGTG8GpTT80VquTw09Xp/Df0DcezD09FMC16BXJYfu1CWnM35Xbl8H+FbMYvZVst672Nx9eOw/kCUuhOjH8PmC2Rs/jKZFiYPas0oNKPbeqk8JHVidF3GyNmAbvp0RC2cZFeNyiUcaEIVHpaL+hWMd+o69ZtmUxAaYu5zRIu+QIOJkWhaCezIRX9QBT+1bVhtBnapIj9iHB2iJqa7/j4FQlhkPpuvlO68bSiHQEJwLz0Jq5UL7pT6hKCmvRO1ujj6H7SLvjKZF3q5IiB2mPC/O3DgWqk8PHnhFzzQap7iCgOoD6K55wYo3DHWzJdQk48SDf2BDAcPKxDYugT6FA/QAADLhJREFUImEpoPeD9DtF7WvWpYGp30lwJTHiam1ixFc6w8N8RQqU8UOfrkmOuGuquDJ2INCQ2BvvmBlYuwRT4cj6+UTfNLa/lparTAq7VLkxqguDTh0KVCVFpJwSGXZHWUT8FHVkC7ksqgVoCe/GU5nJfqJ2THbh4tY7kwmnREDuFk4nLqRDa+YRKx05Zm1qFBHpFvW/ObpnbB1qzhq2uzwx6hWdoWq/X6uSIoKrk42zTI0ltKFyGq6NuQNlG/+Ew2tDiT+W5BEgcGImEfBodEGzRXwzCDX1YPaXRgXBdx1YOZvolzhx0AhECx2B2awrQo2OG8lQn6zxG1HDEpflVGUwuwJ2OJEY/8rx5IiD1iC0KXVi8ABBUrltGeFkCBwUtwgm1HHRokaQIdgMX2qQl/CnEK6Nz6MP89iGBcTgwVwFfAe+C99pywlqCj00ZdGfXb09bG/7ZaMdOnTAY2aqEsNn6ovnawhl989mlaGFyyVHEJAh0PRd2F5NWcK57cwVqaAf6U9ieMn++NAn2yVgT6dGf1STHHGTDKiJOhQVA8DUYbynoNnHmlqTsPTZdgVWAHjonDi60qoGFAN+ylx9OKnJWCVG5IBU+mi7Aeu7Pl45U6eOhXOiaKh1AvHYXrizWvqFV9UkTHN+zvoVy//XN1xdb/+nX3/4eJAfbIqeDke2/AWmJKK0F2DQsZ8I1uqUcHlVQvgHTstZ+w5jf/SWu/u5111cAK9X+g8ABOzAkYNhdfgUqEgMh1NtpPfRcfDaW5vUKlt4bc32CF+nBOv7vh5lb7i6EpBqwIqfr/YfAG+7u4PrMBasiZgCF9O5DIeluY6NBtbx5IiG2pTIuU4F1i9Yfumv6wGpNmA1XPZrTgCkxc2BE4z+SqlBZA3OX50ccffg5iVrh4cMf8rhAft5oN8CY0CqAe2rAwbAy337g++IYEjgzYD9G5cQlaCWouQLawxYe6rzZGoUyLaHQfaKeTBi/HB4090d3vP1Otxz4MBPHRasn7P9vnvT1fWmBoSmfKL+iuVRJVgwZwIc3LQUzotjGE+BndSCM6IYOJ0WBfF/hcCQH76Bzh7uxMYgY+rqCl083Rs+8vebBZDwiEMB1vfbQR++7e5+3RRw6iv72gAXeNPVFbr7eMHI8SNg34bFcF7MtXmyRnvimtp9RQ56Oi0aIhb+Dl+wBhJ7AsdE31i94ep6531fzz2jfw1+0SHA+s0YVpcuHh5mcVJ9BNDcQ7UAvQWDRg+FzPi5cDRhGVST0KXxkRbtQWD+1k+34ykRxAtTuuUvCFvwG4r2e9yz2WujGRN9n509PKD/ENbYDj17dqQtYL8MHvRBVy+vFjeUvo5Yeg/Vgpf69INewYNg0dyfIVU4hxAWxRNjhOkHX1uTEjnnWXEMUbH+jpoG434bBV09PeCl3n3htQED9HJQQ+P4hps7vOfjvffzID9WaOhYeuUKIEi7eHgcN9QBKn9Tc9j+RC3w/I4NM2aMg6K1C+FSBpeIq7YGp73/fjw5AnByoyolEs6FCX+MgT6DBxHx/kr//tCaiDd2DNEd+aab252PAnyW04azuo0I+nc3D48LxnbCGuWQMOiT7TckEKIW/QHoKUBOgQPS3kGp3X+kB9KlMjEc5s4aD5+x/BFQJnNNY8aws5cX9B4W1IcWQPUcHtSjm5eH4jWXBx36xnSG6jJqF1c/EkzwGzEYli8LgcI1C4hYwwHDkG17yTPAfmJ/EZyHNi+FwjULieXu8S0bXunXn7gCzRHtxowZMo4P/bw3BQcHd7I7UL8K8mN19nCvN6bh9iiDg4F6VhcPD+LqmhjyA/AWT4LM5fMIV7mQzoXTTpQgg4YQhqLRlYfWunT1fOAvnQQhU8cCghPpgPRA0W7t8Xjb3f1CryFBPewJ0ofw5V+z/P94y83NYheUtQmmqR85hyZk+4GfDzHGvh33HbFs925YDJczeXBOHNMcYLh/VxFt0UmnvzVi/KwoBi5l8KAiMQxWhYXAD7+MhL5DAqHHQB+iDqGUwUtDC1t89gz0W2BPkJJ3fz5o4MY3rKTX2IKI2u8gAB4wgLhhAkYNgSXzfoGclaFQmRROvAn4WZVku7VdhiYCuuOwLZjEg9fhTUtB+NdkGDVhBHwaOJBY6AhISw0hbfqY8/f7A30q7QrSAUOCerzv673PlLCoOR21xzMIWBSJ6PpC8Yht6Bk4EAJHD4UpU8fCymUhJKwriptDgFy8bhHR++SJYUSNQBUCxS2KXrwweaPlSo0iZdCIIZfWb5ry+Cxa4QjUY9uWwb6NS6BgzQLIWj4PkvizAd1GS0J/gR9/HUkMxne8PEk7X+rTl/g5bc0xWxujLh4eTSE/DX/JbkD9NNB3Huod+rKgWmu0I99HroSDj+DF/AMEMIK5m5cnEalfsgOI3odARhVi7G+j4LdJ38OsGT/BvNnj4a/5v8IyvBb8BoKlkyD+r8nk4v45seU+Am/OzPEwddpY+PmPMTDm5xEw+MdvwG/kYOg/NIhMlPd9veEtNzcCxpf79iOfGPjAttCNvug9+CzQf5jNQRoaOuHp0b8O7/+un/cxDJHRjTD2bg+CWX3dAw2GfHHAEFyaC91m2pfmPpbD8prJf68+/WFKe/fX0PuxLx/4eq0eO3as7SNSn7O83Du7O47BZIiQzG/WBf/b7u6y4Amj/mNzbqp54acsnyGdPTwuO6NeyoCXGvB2dndv8vtuUF8NZuz2+VmAzyf/9fM59LqTWPoMQKkBKNKxi7cX9B0cGGg3cOq+OGBMwL8+DvDdhLoIM9DUDbQj0/Itd3f42N8nJDQ0lH7HAfVkD/wdF+oxgGXA2t3Pe0NoKA1CpLpcVfPdd1Twhx/4eifgjHJkjsC03czJ5uoKH/j5FE2c+D39jwAKDg3u9Dl7oP87Xh6NjKFl5oAbkYhMu8nk6grv+/qUOtyiPkhI6NQzKGCdxhdIO8I6Ihho3OZ3fDwr3ccGO+6OKV7fsFy6enhI1eoAPVL+mElDLafv5ul5dEBwQDeNCuiwnxMmTHi6x0DPId29vY+85eHB6K805owmTWJXV3jX26vKM9i/s8OCU1/De48J+Fffwf4T33Z3v2USQZxlYJ2pH5gAPdBHHjwh+Gl9Y+0U95Kj/njuY3+/TW+6uDQwOiy1YtgWDADH7ANf7yKnBqn2THMfwf7kfT+v5V09PZTOksdqC6DY8x24C0p3H6/V3zuCC0obbJb+nZAQ/MhHAd7dPw7w/aublwcwLi36ctguXp7weZDvb3bJhLIUaFQ+H/TT8Jc+D/LbyqQO0g+snT08VP2GBHpSOd4OX9fsKWO7/tfHc+2bbm5nUB9i9Fj7ARdD4l08PHYHjRnyP4cHlrU6EDAmuPsHfp4h73h77u/s5cmoBbb0Gri6Qmd391s9fLwWoXvRWmPsVPX2+cbv+S+C/F0/9Pfeh8r86zTZK8CeRo1V3+3qCu94edR+xR70JS0zoBwB3T+MH9nzQ39f8RsuLk2MLmsVleDWF6yBKxwBCw7Rxp9+GvHaJ0F+c7t5exS95ebWwLi3LABt83qubl6emd4jgr92CAA4WiMxpazHIM9e3b09Z3/g533+TQzRGrHlulVFpy11SYve5QoY0v7A36fw00ED/UeNGvW4o42/47UXs8kHDHiUPXrolz38vRO7eDKANTQZ0ZPS1cP9rMsQ/0Ef0GEfKMdDHDUtTo4Kfe5Tlt/Y9/08D73h6nr+TVfXW+3dzdXs6mvq5uVZ3TPQbzw1lGZqoYwC34z75p2PBvn+0M3Lc3lXL4+DyG1Rp20XwEU/tLsHdPPyqO/u7b3hk0E+HNgfb/s19pSNZjuoCBISHvlyWMDLPQK8P+odHDClq7t71rt+vvC6m7vT6bU4EVH/fM/Hu/TzQN9RPQJ9unJ//fWxdjDMztlFBK/PcLb//wL8Nrzn693wuovLPw7s9rr7uovLnXe8vJQf+vssnT79O8dPZnZO2FneqylTxnb9X6Dv8E8DBm54081tx9vu7hVvubnV4dE0xAVGg5AuUVlc1Rb72+7uSmxjFzc3yedB/ksCRwb3tJwKTA0OR4GhPw19++NBfr0+DvL5touHx+8f+ftuesvDLaO7j1fdOz7e8JanJ7zhrgaxBsivubgAXoas7tZ+I/tMkedd1Xo06tK4F5WHB7zj4wXv+HieecfbK+u/Ab4R73h7j/o0yN81cNTQtx2OsEyDrUsB9DX29Pd/8utgrxe6enq+9EWQ77u+I1jf9A4eNLerh0f4ez5eov/5e1f918/nSjcvD5NXMnT38b7ew8/7ykf+Pgfedndf/Qlr4GKv79i/fBYU1KNHgNvLGE72HO75VGho6KPW7an1a/9/0WDqWy7jtIoAAAAASUVORK5CYII=;" vertex="1" parent="1">
          <mxGeometry x="246.39" y="299" width="47.22" height="90" as="geometry" />
        </mxCell>
        <mxCell id="70OCVyU23DANTi2EN0oC-5" value="" style="rounded=0;whiteSpace=wrap;html=1;" vertex="1" parent="1">
          <mxGeometry x="244.3" y="491" width="120" height="60" as="geometry" />
        </mxCell>
        <mxCell id="70OCVyU23DANTi2EN0oC-7" value="" style="rounded=0;whiteSpace=wrap;html=1;" vertex="1" parent="1">
          <mxGeometry x="484.39" y="361" width="120" height="60" as="geometry" />
        </mxCell>
        <mxCell id="70OCVyU23DANTi2EN0oC-9" value="" style="rounded=0;whiteSpace=wrap;html=1;" vertex="1" parent="1">
          <mxGeometry x="626.39" y="491" width="120" height="60" as="geometry" />
        </mxCell>
        <mxCell id="70OCVyU23DANTi2EN0oC-11" value="Lambda Service" style="sketch=0;points=[[0,0,0],[0.25,0,0],[0.5,0,0],[0.75,0,0],[1,0,0],[0,1,0],[0.25,1,0],[0.5,1,0],[0.75,1,0],[1,1,0],[0,0.25,0],[0,0.5,0],[0,0.75,0],[1,0.25,0],[1,0.5,0],[1,0.75,0]];outlineConnect=0;fontColor=#232F3E;fillColor=#ED7100;strokeColor=#ffffff;dashed=0;verticalLabelPosition=bottom;verticalAlign=top;align=center;html=1;fontSize=12;fontStyle=0;aspect=fixed;shape=mxgraph.aws4.resourceIcon;resIcon=mxgraph.aws4.lambda;fontFamily=Helvetica;" vertex="1" parent="1">
          <mxGeometry x="870" y="159" width="78" height="78" as="geometry" />
        </mxCell>
        <mxCell id="70OCVyU23DANTi2EN0oC-12" value="Lambda Function&lt;br&gt;(resource)" style="sketch=0;outlineConnect=0;fontColor=#232F3E;gradientColor=none;fillColor=#ED7100;strokeColor=none;dashed=0;verticalLabelPosition=bottom;verticalAlign=top;align=center;html=1;fontSize=12;fontStyle=0;aspect=fixed;pointerEvents=1;shape=mxgraph.aws4.lambda_function;fontFamily=Helvetica;" vertex="1" parent="1">
          <mxGeometry x="978" y="159" width="80" height="80" as="geometry" />
        </mxCell>
        <mxCell id="70OCVyU23DANTi2EN0oC-13" value="" style="sketch=0;points=[[0,0,0],[0.25,0,0],[0.5,0,0],[0.75,0,0],[1,0,0],[0,1,0],[0.25,1,0],[0.5,1,0],[0.75,1,0],[1,1,0],[0,0.25,0],[0,0.5,0],[0,0.75,0],[1,0.25,0],[1,0.5,0],[1,0.75,0]];outlineConnect=0;fontColor=#232F3E;fillColor=#ED7100;strokeColor=#ffffff;dashed=0;verticalLabelPosition=bottom;verticalAlign=top;align=center;html=1;fontSize=12;fontStyle=0;aspect=fixed;shape=mxgraph.aws4.resourceIcon;resIcon=mxgraph.aws4.ec2;fontFamily=Helvetica;" vertex="1" parent="1">
          <mxGeometry x="870" y="320" width="78" height="78" as="geometry" />
        </mxCell>
        <mxCell id="70OCVyU23DANTi2EN0oC-14" value="EC2" style="outlineConnect=0;fontColor=#232F3E;gradientColor=none;fillColor=#D86613;strokeColor=none;dashed=0;verticalLabelPosition=bottom;verticalAlign=top;align=center;html=1;fontSize=12;fontStyle=0;aspect=fixed;pointerEvents=1;shape=mxgraph.aws4.instance2;fontFamily=Helvetica;" vertex="1" parent="1">
          <mxGeometry x="994" y="326" width="64" height="64" as="geometry" />
        </mxCell>
        <mxCell id="70OCVyU23DANTi2EN0oC-15" value="Comprehend&lt;br&gt;Service" style="sketch=0;points=[[0,0,0],[0.25,0,0],[0.5,0,0],[0.75,0,0],[1,0,0],[0,1,0],[0.25,1,0],[0.5,1,0],[0.75,1,0],[1,1,0],[0,0.25,0],[0,0.5,0],[0,0.75,0],[1,0.25,0],[1,0.5,0],[1,0.75,0]];outlineConnect=0;fontColor=#232F3E;fillColor=#01A88D;strokeColor=#ffffff;dashed=0;verticalLabelPosition=bottom;verticalAlign=top;align=center;html=1;fontSize=12;fontStyle=0;aspect=fixed;shape=mxgraph.aws4.resourceIcon;resIcon=mxgraph.aws4.comprehend;fontFamily=Helvetica;" vertex="1" parent="1">
          <mxGeometry x="870" y="450" width="78" height="78" as="geometry" />
        </mxCell>
      </root>
    </mxGraphModel>
  </diagram>
  <diagram id="EcUFA2YTMfbIrkT3LzEj" name="Lambda">
    <mxGraphModel dx="956" dy="569" grid="1" gridSize="10" guides="1" tooltips="1" connect="1" arrows="1" fold="1" page="1" pageScale="1" pageWidth="1169" pageHeight="827" math="0" shadow="0">
      <root>
        <mxCell id="0" />
        <mxCell id="1" parent="0" />
        <mxCell id="L747Lcb5u26m36fs5fLU-3" value="" style="edgeStyle=none;shape=connector;rounded=0;orthogonalLoop=1;jettySize=auto;html=1;labelBackgroundColor=default;strokeColor=default;align=center;verticalAlign=middle;fontFamily=Helvetica;fontSize=11;fontColor=default;endArrow=classic;" edge="1" parent="1" source="L747Lcb5u26m36fs5fLU-1" target="L747Lcb5u26m36fs5fLU-2">
          <mxGeometry relative="1" as="geometry" />
        </mxCell>
        <mxCell id="L747Lcb5u26m36fs5fLU-1" value="" style="shape=image;verticalLabelPosition=bottom;labelBackgroundColor=#ffffff;verticalAlign=top;aspect=fixed;imageAspect=0;image=data:image/png,iVBORw0KGgoAAAANSUhEUgAAAGcAAACBCAYAAADdXKRmAAAgAElEQVR4Ad1dB3xV5d0OqDhaP1vbr7a11qpdVu33Vb/WokJuEsi+M4sNGUQc7CXZbMIK2ZOpIHtvARlhBWTJ3gQSVu4IYWjX8/2e9+RNTi43NzfJDdjy+x3OuSfnvOP//Pc7jofHd+gfPDxapaR4tNZoNI+mhGl+mqj3fTvOqOmUaNCkJRm89iUaNHeTjF5INGiUQ6+5l6jXnEjUa1YmG73GJoZ4RaUYNcGJgV5vJwS3/01KWNtnUzSaR8PCwh5huSzfQzm+Q73+DjclJSWldUrYH9oMC9D8IsXoZUo2aDKTjF77Ew2elSkmb4wJ64BRIT7gdQ0oEhyDBslGL6SYfDA6tIN4dmTts/9INGhuJho8jyXpNauTDZ5TEo1eUfFazV/jdD7PpWg0T+THvvVYiodH6+8weR5O0wRhwjQ/HRnqpU82en+eZPQyE4ixYR1BApPojsBwdi9BBRoljGWwLALHcseEdawG2fN6ssHrixSjV1KCQaMhWAPD2j75cCjxHaqVoCQYvF9JMnj2TTFoDlEqSDhyPwlPAquJnGjwQpJBIXSyyVsQl1I0svrgtTz4dwLC53kIIPW15bHcJIOmRtLGhfsixejN46hQi3qvt1MMmh98h8j14JoSr2//QqLJKzbZ5P01uZgcTWIlkIDVRCRRSexRoT4YF94REzv7Ia2bP9J7BCCzZyCyegUhOzIYOaoju1cQsnoFir9n9AzEtO4BmNrNH5O7+iE1wleUw7oUlVcrlZIJeF8ByutuitHrs4TQDpohvr7fe3CUeYg1Ub+PNHT0STF5rxkV2gGjQzsqUlINiuRmStCkLn7I6BEgAMiL1iFfHFrkR2uRxyOqnqP673yu5ohR3mc5uVFaUSYBTuseIOoh+GQCqUJ5ZhuSTd7WJJPPqEH69i88RLK1fNUpund/nmTUxKcYvW+y47QFUlJ4TY6e1NkPmT0CBQElYUlMdx8C2BrwdAJoSiGlkkxBm0fVqNipjkg2eC4YHvzuL1ueSg+hhjidzx+Tjd4LaE/YYWFP9IobTFCmdPUTaopEIyjuBsOV8iiNrJtnqkoCNaGTr5AoMlO8wXP6f5yzkGj08kwxee+kwae6kMAQKHIpbYdQUw8JFEfA1QAVpRX2i/aO7R8e1M7vIfB2y1Q5Qt8+cGSIzxFKizT49JzGhXUEDbZUL44I9F25JyQpKlhI86gQn/yWodQDLjUhpH1gitH7WI1rrKf76oXJXfyqjfzDUV9NBb2wt57tLp1g9PufB0xKt1XHtIjHiCCfdiNDfA7TFaakxOuVmIKuLYlDbmwqkR7me4UxOmT0CDzElJDbKPYgC0rRan6fYvTZTmCoygjMyBBvobupxh4mcZtbN9tPgFJMPusfJE3dUhej6mS99+dUZXSPFWB8hNFvLmG+K+/To5vUxe9enK5dJ7cQ7UEVkmTwTEwxen9Dr0xRZd7I7BX0by0t9kxBlUwXO8HgZU0yeWWkGN/5yYOib5PriTN5BaUYvC+JOEavZIkZ4f+7q7L7wInSiiCVAfTIEJ9/JBm9TiaZPI1NJlxLvzg48J0Xk0O8VzGglHkqpkb+04AhUMwkMHsgkqnVydORIT63kozeY5ieamlaN6p8joMkGTSD2WAlJeMpkpT2HPef8JsqbXJX/5q0kwSIanykyedfyQbNp3Gmdj9rFAFb8uFEk8+fk43exyk18XpPIfLkrv9Yqake1Evt5KtkPKrTUASINEgyapYmaNu/1JI0d6nslDDN95P0XhOZ9qcOpvvMnFRLxjFiiOAhuORktrHhCgNyGKIgRifCg7Hh1Unc6jEikTQ1ei+KD3znRZeI2FIPxeu930kxel2jE0ARZ66spdQXiUOJpC3LjVTSKS1Vl325ZLZJXXyFZuDwghx6yK8etkjrFkC1JhiUqp0ApRi9Cob4PiRPLiXg7f9KMnhnME9GdUaRzo5Ukpj2nWvubxKHA2kTInwfaDArVTNTTvEGDTgGRcmV92W/GPtwkI/ZazKpsEEhPhhp8kqc+jCGveN1mv9LNnpVyICTot4S6kwAExksuJFEelBDCrIvEzv5Ik7bXgx1EAB7YNQAUbJpiwgQ6ZJs8r6dYtKEPtDJI+SGRKPnWIo4bQ05RnCUm3NmtcBwUkYH5Lq5fElY+zPVFgk9LqwD4nWeGN9JGZXN6hEoJNj+efm7BtDOfgIgMZHE6HU0wdjh1ZYyLfeVmxL03stJBk2p4A6jF9K6U2qUIWDZ0Oaea4GhB+SlqLMWBod18uAQdgqzHDpPLIiPxFdFCdg2uT8WDeuB/Bg9Mrr71wsS38+J0iK1k5/ILSqqziv/gag3Ts5LNGliyMkMOIXUVBvG5gIi35fAjCXn6j0xpat/vepEvtPcs1SXnAwSH9wOYyJ8sT61L25syMDdnUWo3JqLK6um4mBRAlYlx6CAIHXzFxrDvm4JEG0k7U+yyeufSSavoBafyDhM9+7TSUbPbYpP7yVmxHDyhX0Dm/qbRKJKIehxOk/QVc2pHuxqapnO3qMNYZ2UllEh3vgkqB2y+4TgwPRE2L7MRdX2fHGu3JqH2zsKULUjH9c3ZODIrCQsHdELVHU87FWuZDDSiY5Ekt5rN52o+9SQG2+0oiMg5oNVB12OvBdnxHD2N9khAhOvU+ImEs3ZO835G0Fh+2n0RwS1w8hQH6wc3QeXlk8WoNzalieAIUjq49b2fPH3q2umYVfmEBT1MSK9m/997WR/MnsFCmdCAGT0jHQjFnWLWhgW9kiCwWuUokc1Yj6YVAfNIRLfrQGGTkb1HDZ6gM0t19H7os3RWiH1SXqNAKawbwQOz06BZXO2IDzVmBoQR9e3tuXD+mUuTs4djc8Hd60XIPZDiQU9j6XEvvVUXaq66VesVvtUgt7ra1bEbICYnOGGaF0CQ++PbijtDPW1u9UZQaHjwhFZzvAcFvguJvfUYkfWUKGqSGyqL0dA1HePz1PCSpdPxvL4SOEsUBrVTMH+sW+kW5JR09VNcNQtJjHI6y0aOHpPSqTc/JHN+4ERqXgR1NUXU6g77so16yAoTC1xFs2wgHcxrrMfNkzsi7I1aYK4lfWosPpAsb9PVVe+Jg0rk6KR2T2gjqPAfjBGov1J0HvtrktVN/1K0muG03enzZnW3b/ZASEbTekYF1Grygi8SNG4SSLrgBL4rvDC1oz9CFdWT61WX42TFHtQ1L/pPFxdk4Zl8ZHCwVAzDqWW6a0Ug+ZfTHu5CZLaYpKMmi00bJwT4A5HgMCMj/AVgSzVGW0N4wN7taDupCvXQlKitEjvTklR1Bdd45VjPhCg0Ouqz9irid2Ua5ZNFTd/cFdk2zkzSmDLwN2roJaqbrjqr3v7Oa6VSTZ5CU5vbtBZC4ynsDPMNFDs5SRDV0Cwf4ag8J6SiFTc4vGd/bFm/McoXzsNd3cWthgoaiDvFBfh5LzRmPlRaJ1gle2b2tWfNvVqqu7dp90Ai1JEgsHbV3gcRo3ICDTHS1OAURKmQmI43GD0FoZaEtie8M5+8x1yJaf1spw4XXtM7hmMjZP649q6dBFEtpSkqEFRX9/ZWYRdWUOQH6OrowlyejFP2PGfCXpNqNvAidd7jqS94YgnCdFUY30fMNULnZo63MA4SA58cQ1PZqwJ2zOG4MbGTNzdNR30wNREa+41XWx6aA252rLelYnRdcAR0tPN/1+faD0/dRs4yQavNZQcpm2aqtLsgaHU8BBZAALuYu6M5YiJ5hG+wqUf08kPMwZ2xr7CeFi35ApQZGTffDAUV1lxs+vGPsKNrnalHbngTPtcWJKKWR+F1QCkeG5BSDR4nXfLxPhYsQpNc55u9MTOvsiPaZwLLb2y8RG1qkyqMwJO7nemJgkay6DE0pMTI690IIwaFPbrhCNzUnCnuBD39s4UNoUANRcUqkECbN2SI+zVqQXjsL8oQUjl5ikDsC19CEoK4nDi87HCyWDwynekxMj6Kb3bpw6oAYfqmX0ZF9Hx3vDA9u2bLT2f+Gt+laDX3OMMzsYOQ5OwUmIS9IrxlxJDsBk915ebk5JEUGhIlThBmUXKMhgIZ/Y2YuXoD3BwRiLK10wTxLEnkCSUK2dKQNX2Apg3ZePk/LFYN+Fj5H4QitHhHcW4DmOkof7vYGjAuxgR3A4poT7I6G3EipF9RIbh+voMAaq0cSzrxoZMfDagUw1A7FdWr6Bv43Ttk5sNTryxw3siu2r0apS9EcBE1nWXJTAEmjktPkNOsjf44t0oBZRkgwbDg97DsKD38ElwO5GcZIKSx7CAdzDEr60IjGcM7IKvpicIwjZFrfEdEvX0wglYNvJ9TOgSgKEs3/8dUc/wwHcxPPA9AQrbweuh/u9iUMe/YmCHt4U9njO0Ow7OTBJtoFtNhqD0lOQOB52Bmn5G6/6ZbPRa12xwkoyeYVQ/PBwRsqZCFZElMEzDyLlsEhgx1BDeQYx78Dn796niqOrGhHojXtce06INmDmwMz4d2h2fDe0OgpD3YRimRupqOJrcPMS/LUaHdcTyke/j8qopIovckOGW0nR7e4HIqxVnDUNalA7DAt8ToJAB6ARN7BaI7PdDUNS/E2YP7orPhvXArEFdwZxcVqwJE7sHCgYZXM0oixNjcGHZJNEGll3xRZad9OgwPqLjubC33nqmWQBxxTOBYcrGmW2QRJZcTxsjAZFnxjMsSwz52gFD4Pkuc1+JOk+MDOsgOPjs4lTcWJ8hOshOXlufjsurpuLUgvHYmx+HFaP6CC+NapNSRK6ePqAzTi8cj0q7jLIEQ32mtJSvTcfqsR+K9D7LoKRO7BaEz0f0wraMITj66ShcXDYJV9el4+bGTNEWqiuq0gtLJ+HoZ6OxO3c4Vo/7EIX9IsD4ikMPdFJsX+bh7u7p2J05BFnVgSlVeUaPQPOggHf/2ixwEvWeIznqyRkoDYHjFJjqyQ/TxPSpumNAQiKrJ+2NCHxPJCR3530Cy5YcYeypu6l25EGVQSeABwlNAm2eMlBIExOag33bCikjIR15UhIc/o3HjsyhILjkfErfkqTeODZ3NG5uzBLcf5d17ShQxnQctIOeGdvCsgjgsbljsGFiP1CCpBd5de00TP/AJGwP+5sfo6tKCunQu1ngJBi8MghOQ5M4nAFDyaE6E6OaDiSGg1WMdajHs94PwfF5Y6oNa8NxCjmfhFPsxXihbmgDqHYoac7ByRXvUTqoGhm8UhrpENzZUYiqRsZJrIsMRKDomJSunCL6UrY6TdzbMKaPWJRMcAqj9d+Oi/DNaSY4mllURc48tYaA4aoD2h+p+tRnvsvhYer3/I/DcXbxBNFB2gu6spLLbQ24yCQMiXJ1bTpmDOiMjZP6ifedgcOyKYWHZiUL+8ExndvCMbBjCtYt61dfO1GbEijWYdmcI+o5NW9MHdWW1s1/f4q2GWM8iQbPhQRHruNUE5bXrgDD4NVRQpPvUpoITO6HoTi3JFUAQyPKuOXe/jm4t2+2ct4/G/f2zBDcXAc0OwKJ5OPKKcIpcPacBJ1EpMqhauQ9NZh8/+6OQtwrmVXbhuo20Qur/DJPBL6yrIbOlMhP+4eLnFt1MH8jvYefvsnSk2jwWshxEEfzthoCRjoAjFXuAzVKi2k9/IVrmh5jEAacHSYh2In1GUMx/uNw9O/UEYO6+CFtUBdsyx+BW1vzBGDk8PqITwK76qlJgt4Hys4i3CuZjfJ16Vg1dSDGfRyOQV39EBcZjPy4SBycN1oY+nt7ZrrkeLAeMs7m1L5icghplxel/Xt6j4AZTQYnQee5iEMFzBirCUy9yQCT6kp6Y+ozgWF8VN88AN5P0LXHxO5BwhsiKBz2zRraHX985Rf43hOP4dHWj+DJp55Cm8cex2OPtMb3n3wc//fqS5g2qCvMW7KFdEniuuPM+mm77pXMxMnFqRjSLQCvvPATPPU429IKTzz+JNo8/gTaPNoaP3z6Keg938SmnOFCokn4hrITtEcnPhulTAoRWkeH3Ejt1zlRQS83CaAEg9c8Ruf2akkCQxDUoEjjzzPdYuGJqWIgAkxJYgZ5VHhHkQah6joyfwyC2/0vHmntgSeefBJt320Lb39vvOPdFl46Txi7GfDmn96Eh4cH2jz2KN5+/RVsyBomCEmCNhccAkObRSJnDu2GF577kajrsUfawKejD7Sdg/Ce37t4z+dddAzogNdef038/dn/+j7iIrWCsei1SYAcufGUzuvr0jGjj0kEpXSpC6P1lpyo4I+aBE6i3ivb3mYQGGaDHQEjwNF7CiNvP2WIwPBdlpcS4oNNUwYIFbWjKAF/+t2LorNvvPEGsrKzEB4Rjscff1zcIyDP/vIH6B0fhZSkOPzkh0+L+z/+wdNCiujqNhcglnFl7TREGzwF+KzzL//zOlKnjYNf9w548gdP1LTlh8/+EPGJ8UhISBBtbN3KAz2D38MVDlEQ4OopVRIoNeOwnUvjeiFTTMakS60nAy/jBJpGA5Rg8ExkslEtOdzVgh6YvcQowCipGbUKrLmmy9zZD328/4L3g95D5fZ87Js3Gn957SXR8T/98Q3s3rUT/Hfs2DH89Kc/Ffdbt+YGgx547EePYHj6IBzdsQ6B77wu7j39vScxZUAXkSZR2w01QRq6prRcXZ+BXtp2osw2j7RCfGw4DpRsQsdIDVo/2gqtPFqB7WjVqhW8vb1FG//2t78hPzcHTz3RRrz3vskLN7/Mw5EF41AYH4WLqzhHoa7nR9W2PW0gpnbuKBwDLieZHms4lRMT1K7R4CTp2ndVg0Ng7FMyEiRKEjMJlI4aQKpVGtUb1ZyId6L0MGjegubNV+H7tkLkP736MnZtXic6zf9Wr16NZ599VhCDRBHHI63xq/Y/x8oti3HnyBf4yNQejz36CAZ28RMc21TpoTo6vjgVfm3fwDPffxIFI3ri7+XHMXTaQPzgle/XaQPBee2113Dv3j0FoHt3kDd5NL7XprUAqZPfX/HGKy9g3IehsGzJFQ6Mmjkqt+bjzPyxWJ4QiRUJUZjTN4we7ze5vYIbnwhNNPr9T4rJ+x+0EwwU6wXGoBHpfC7XcGRn6AAk6jWY1CMIl1dOwZa8EXj6e4qq+M3zP8LqGZOAfyodrqqqQkBAgAKIBIZc27oVnv/Lf6NHQhfcu3YBtq352DszEaWrptaoEjUhGnNdtS0Ph+aNwYE5Sfjm8GocOrQL7SLfxtO/eKoOOGQSqtvU1NQaRrp34xLG9O2CR1p5CAny+fMfhEPB4NhRGzjbR9g3qtJVU7B+ZCyyewZtnBaje65R0pMREPB4ssHzHAPFeoFpYA6AcABMPiLFfmBGovCy2MDcT3ri18//BJlDuuHu+X24WnENX5/6Gj169sBjjz1WlyitWuORxx7BS54/R/uebXHy1BHcO7QKd4uVDAENuiNCNOYeJejujjz87dIhzFo6A/8b9ip+/Psf3MckVLHPPPMMsnOzcfHqJVhuluPKziWI0b6DP/32RXyZN0Ko2Qbr3qo4IVdXT8XCwV0ujw/xCmkUOHw4yeA9WW5eJ1WYPFOVMQ6iZNB3t1dn/E1Vx7nPHNdnEtD2ZY4Qd9qIK6sn41bxTFRdPokJsybitx1eQuvvtxIcSD0vD3LsD3/1X/hd0It4K+wN7Ny/A/dO74Lti/Rmg1JDxC3Zwuv69to5TJyRitf0v8YrPs/j8WfaoLVHa6UtrZQ2EaBHf9waPtHtsHLzCvyt9BCur0+rnQvX0ARF/r16JNW6OQdbJ/ZFWucOaY2e8C62ADZ532DcIkHhmcCI7IGDtaBUbQSLqpAZgHmf9BLRvdpo00bc3Z6Hqj1zUVl2DiMy4vBr/+fxQtvn8PTPnkKb77XBY08+ijZPt8GzLz+D3/m/KMB5M/R17Ni3HXcvHIRtU4ZbwbFtL8K3N69gQtEEvBr8Mn4f/CJ+9d7P8b3nqtvzhNIeMsqvND/F/4b8HovWLcS3pcdwm/3ZoSRAawB3JNFbcnBj6UjcWD5aCZa35uJQfhyXVO6a2tPvtUZLT7JeM17Ok1YD4yjnJiSoOjXDQSqmzzlKSK/ovkZvzoK1+FPcuXYZk2dPxR+CXxYA/Nb/l3jxnZ/hF395Di+1fx6vBr8kjt8G/BJtu7yFw8cP4c75r9wOjnX7dPzt5hXkL8zH6/pfg+34g+4lwRgvtv0Znn/rJ3ip3c/x+6Bf4bcBL+CvXd7CFzs34ZvSo0rGQp0PdATMl7mwbszA+fTOuJjTS2QXKrcX4FBRIvKjtFUZPQKiGg1Oisn7TQaOcu80mQy1H0YgMGIBUYSvkJiMGCPOLBovDOB9wLDxVCU7ZuLetYtYumkF/hz2Bl7pqIBBovxB/5IgDonx+8Bf4Tf+L8A0QIeKGzdgPb4dlW6WHOvWfNwrP4ete7fhz+F/FPWxXjIH2/Oa/uWa9vza93kEfeCLM+dPo+psCWybs4XKdthPCdTWPFSsmYRzU0JRNqsvCEzltnzszx+B6b0NyI8Mnp7Wq5G78zJ7mmzy3kxQpCpTA0NQeDAHx5mWI7SemDWkh0hmOpQY2Vih5/Nw6/xBnCu9iIghJrzc8ecCCBJFffwu4EWQIDmfZ+Perduw7F/hXnDYJkry6RLcvFmB7p90wiu+z9dpg2wPJZiMkpKdhNu2SlgOb0Dlpsz7NYPspzxvzceNZaNxYVonVKyZiFvblTEpLicpUMZ5TmZHBjVuyi5XtU3p6p/FGTA0/gRG2hWmISgt9OjiOPEhxAeLB+pxbsYA0EXlaKAzbqrcnAXLwbWikwvXL8KbIa/hpQ4/FUR5Negl8CAwv9T8twDvSnkZrOWXYNs+XUies7Ib+zcSmKDfttmwsfgLvBX6usO2vOjzHAL7dMDXp46h6no5rDvngv1oqD5KydUFI1A2pz8qtxeCXitn72yZ1BdZ3QPEqrmcKO2ARjkG3Kg7Nyr4C4oek6A8GGzyzNmWYnaMQYPsPqHYV5SACzlRuJTZGZb1U4VX4rTRmxXVZrl4AhUWGwoW5uHPEX/ELzQ/wguaH+MXnj/CL71/gk5DQnDg6AFU2m7BfGST+6WG3L0lW8RP5gtHYbNVYd7quWjb5U3RBraFB5mE6uzLPV/iVmUVzCeKq5lENf4kJcX+zCGKBSNgWTcFtq0cJMwXw/Ark2LEGp/ZfYwojDEsz47Uu75lclovww/yorTlRTF6ITnMRtOF5hQlenH0yIr6dcL5pZNwe+cMXJs3BGcnm3Bz1fiGweE4yuZsmEuWwny9HDcqLNiyazNSshPRK74b+oyKQf6CHJw8ewLWytu4ee6IIKAgpH3n3fCbEmDdvQAVV6+gwlKJ4v07MConGb3iuyI6qSfSZk/BweMHYbXdRsWlk8JmKvbGtVjLsn5KjYQRnEvLJuHTfuFilLSotx75UTpLXnSwj8uOQVGfoNepxrhzBWMXSgzTMdwpnWouxaARM2Q4FbaquBDWjem4kNEFNxYnCoPnVHIEQXME91n2r4S5/DLM1ipcvX4Tl66UorSsDDfMVpitt3Dz3OFGE6Phuh0QdXM2LCVLUFFeCrPtNq7duImLl0tx6cplXLtphtlWhYqLJ2Dd+VmTVasMK4rTB9XsqU3aznrfiMKo4OT8WK1rK+Hyo3Vhs/oYHQaZtDmcypT3UTiurE5Thpm3F6F83lCUzx2Cym0OXGiHHE6AcmAt/gwVJ3bCXHYBFdevo+J6OcyXjgu7ZN1aIJ5pEsEd1ukAmOrnKumsFM8WaqviygWYb1xDxfVrMJeeEWqVbndzpJdx3rlF4zHjA1PN8LUEpyBavye7m+7XLklPbox+7Jw+pnrBSY3oICZIyKFm25f5sH6Rgavzh7uk1uoQm7ECj+1FsBbPgq14JujiMrNQ57lGErtJ727JAUGybSsUbbHumAXbtgJUinim6e2h1HB2z7K4SDEySlDkQWbnMHZOtNbgGjiR2rUzYw01BciCeKbnxtVunG/GNZZMSygimwfLhrRmcjoJ0HQiNAmQekF3X1s4jL5tSn+xjlRNS3k95wMTCqK1eQ2CszYg4PHcKO2Fwt5155vJgmQWmquTs943icndNen7hnJM9RKifnXjXoI/+HpIm73Zw4SdUY+TSXryXBRrINOXNQhOUTfdr3Mjg//ubPmHlJ5PAt/Dugl9XZqW9O9O5Ma2XzIsA07O/qwPGIJDhp/9vokJYOf/cqKDgmbUo9LUaDNDMDZM7JgkZt1zYKmxHfiPeL56zp15kxKUcj4B565dWJoqtmfh/jnOgCFNGdTP7uMCOLmR2ni6d2ogHF2LvFpksLA9nFXDnBq5RbqMD43w1el52sKaowXVKQfSvp6dLLZg2TjuA2ye2Fessqah5545jmjn6B6HsJ2LjYeHR25U8GJXJIcVUL1xWxFu8MOVACfnjxPgcOxcgsQzQZNi3qKgcYYmOZhJSfXRQuCwn5xhs3h4d6R39cO06sMVabEHiNLjFJwUj5TWuZHa44UxepcRJ4cQoARte6R2DQCXVpStmSa8LgHQ1lyxbrNs1VQh7hI0t4NESdmcjWuL4lE2ZwCuzO4nzjeWJDfevXcBTIXp8sVqNtqMhlSXPRiOfjsFJ7dH8PM5UdrbzpwBR4USIA5Pjw5Rhhm4NGLjxH7YmT0MxZlDsXpUH7GHGecPc/Wx24GpIWYeKlZNQNns/igt6C0AYjbYZjcrxh313y4uFHvhzPootE5Q6Yg+rt5zCk5hjNab+4u5Wpj6Odog/k7v7o+xod4YE+ojVrSldfUX4k79uyIxSiT+qhwNxNUQuHnurpL9ZZYiRyQbGUS6Awx1GWJ61Zppypy06s+bqWnR1Gun4OT0Ch7kqr2prwEEiZIk/q6aNy3FftuUAYJY9nO81J13y7WIuZwPXzSlHrab87a3Tu4nVFmdJYaqyL8++ji77xycqOA5011wo51VUO/f+H007qPTW4+vCuLEHIMH4iS4SSIJpLQzh4oSUBhrcJs6kzRzCk5uZPB+unTyYXedaX7sNaEAABYsSURBVDBpk7goix+lmPlhiNimkd5Oi0uQG8Hh7oVnF46rSfm7iz6ynHrBmdxZ++PcKG2FTM/IF9xxZpkcauCca4LEiHl6HxP2MDen2sKxKWqmye8wJ7idsZBrNo6MdGXlFCwc2g2ZPZQva7mDNuoy6gWHY9kFvfXfqB925zWlhgt7ZZlitmi0DhvGfSDW7zude+BG7icYlcX5CjBrMmHbyNFQ5wBxner19eliEzx+31TaT9kXd53rBSc3UvfBjFjD391VkbocDnFPiOgowFG76ewkQVo4rLvYnoTRdpMloSEAmb0oLoBtWx6si6fCMiEBlklJsBEgJ8tKhGe2dlrNJqwtBQzpVS842ZFBeTN6G/6hJqo7rqW94aIsqrUaT07l2RAgrj4+UJQg5ru5NVAVoBTCtikHljmpMI+Ng2XwQJj79oMlf4zCDPVIDpmldMVkzBvYpWYRlDtoUl8Z9YKTG63bXhCj+1d9LzbnfkaPQDH3gDNC1ZKjLpMcyWPD2A/AJOLtHc2TItqTyh35QjIIgjlhGMwDBsAycIACTPInsK5MV9SbA6kjMNxwdcaHIW73ytT9Vl87BCc/tsMzOZHBpfURTl1AU675oSDOHFX2v6kdBXRUFnU6OfXcoglgFN4kKWKmeNk0WNKSYR42GOZ+/QUoApj+A2AZMgjWT1MdAsP6aGP25X0i7COl2lE7W+KeQ3CyYk1vFvTWVbZEhbQ33EKS4HC7fSZLG6qH2zKSUXZlDRXzi7npqUu2iOqJ6istBeb+A2D+uF+ttAwYoNwbPgSW2RMUOyMC1VpngPUwwNw04SOng2MNtb+pf3cITk5kUM8ZsYY7TS3U2Xt0nTlrlBuucq61K+CwPKo47j67PD4Kl1cqm3O7vGp6fRasn6XCMjUZllEjYEkeDvPoEbDkjIJtdYai7uxUGVNK3PWWu68zq+ysTy31N4fg5EZpJ0/vbfi2JSplfMM515zzJvY3cEFy1O0gQDM+CMGBwnixBYtLWQXpLhfn13hiwgZJF1oFjIz6T88fgzmcT/aQgGGfHYKTF61dXRCj/6eaKO665iap3Nyb27Y42qTIlXoYtFLVrR0Zi9Jlk4QdapQtorpz4JGJPNnmHJTkfdIi6RhX+qZ+5j5wOJktJ0p7zFVnQHpV6kKdXXNdKRdTjQpVvsArs9fO3nH0N9bL7wjMHdAZJ+eNEQufGgWQSloIFO3LtbXThH1h2XKXJ0d129/jwJj9PXf8vg+crN7a1wpj9FcbStvIeIUb29HrcqUxdAa41J3fpyE4tD8N1eOsXHpOhe8b8MWEj3F87mixVQodhcaApKixPBH0LuWm3Q18yMi+PQJIMXfc/QDdB05ejD50RqzB4kxyJDBMv9B+EBxXJIDEpDrjUnm5v0FzwZn1cRg2T+qH4owhKMkfIVxusWOUC/MXFHuVg0vLJ2FVUoywLyS2PQAN/aYd5dGcvjiq4z5wuOyanpozYrMDYidCbqPSiM9QZvbk7rDKFl/cGddRgxpzj2DP7huOrVMHYHf2MOxIH4ydGUNwZGZy9eZE3DJFyXQTiJqjek4DP2B0av5Y7MoehvlDujUpR0Y6ERjOHW9M21159n5wooLmFUTrnKZtZBDJb93QLeacAWdgsiHkKukMcGU2pa65nEZw5g3qIoi7O2sodmYOQXHGYOxIH4S9ucNxfC53GZwovjNwY326+JoUJ2BwifmZheNxYHqCeIegLhjWXahZV4hm/wzVM3fAEtLTSO/Tviz17zrgLAwLa5Mbqd3tKN/FlwgA3V+6wVywy4PqSdiOhhpVvYCXgFJ6mPh0pjrVjazvmh7b4hGRODZvLPYVxAlgCJAAKX2w+L07eyj25Y3AV4Xx4thfECeA4zNC0gSgQ7BgaNPBIZNRtROg+tralPt1wMnrFfybwhjdmfrAoVcivg5Vvb0KwRFpf1cMOycdhitfliI49SU9G9MJSs7K5FicXz4VJ+ePx56c4XUAqpUkSlPtQemi+uPfubU9z4uG92iSWmN7JdNS1buiRVztYx1wOLtzeqy+3CE4/FhCN+Xj2SSuPOituVIZgaUKpDPAT70w6emwHhfdUmm4N07oi4srpwmAjs8bK2xPMW1PtQQ1eCY4WUOweESvJoPD/rN/ZFSu9Guuupb0rANObs+gwdN7GyodEU2mXeSmRGJHD6PyibCG7A0r44IrroLjewSHneDHGGRDGnum1HDcnhJxaWUazi2bIgA68fk4RYIaARBzdvz2TWPboH6eaSj2iZqFfW0uQGS+OuDkROlyC2L0f7MnNn9Tn0pgKDVUaSS2K8lLNpTDBHyH74r3xI7sTY8N+KXBmR+F4NC8ibi0NkcY+LOLJuD80sk4vWii+MYn1ZdQYQ1IEe3SivgeyOrig4zOPsiJbHzmmTQSq8lDlQ1r1cA19boGHK6YzonUrXfEzVIlqfe/IaEZs3CChj2Y9o3h36kSpTNAcLiNsatJT/vycnoFIbtHADbmTcLNa2VieeDVY3tRunMpLqzJw7mlk8XBPZ9ph+i9OQKpOG0Adkzpp7jh+aNRvHAW9qyYj5l9uyKnZ+NdYzIht5ORTpJ9uxv7uwac/NjgXxZE6w7az7YhYbnEXXK9tDX8XbP/ZwOeGstQ79PGDSeakvRk5wRXRwZh04wMVFRUwGqzwWy2wGy1wWy1osJcgfKDm4WKO79sCs4unSz2eqY3R/UlpIlgZQ7BV3Mn49T21Sg/dxJmlnWrClV372H38nnI4/dvGjl2Q2YjEwrmc0PcUwtOVJDXzFjDefsZniSs+PqG3QZ4BIdfwqVubEi/sgwaS6kWuVdBk5Ke1OXROuxYOAu2W1WwEBCzuc5hrbyFssulOLOuSJGgaltEm3Rm8UQc/3wsvv50FM5uXw4+a62sW47FYkFl1W3sWjoXeTF65Nh94ssZ97OftM0MNdzxEdoacLJ7BfcuijFU2EsOiSilRX2mihsnPhvZsN0geMylSemj1+ZSbKTy3MjFRdznYP0yVN39BiSiPTDy99fHT+PotqW4sHyicBQIjDzOL5+Cc2vycf70CVi4p4EduPzNslnHoS/XY2bfLvd9g80pQMJr8xVOD1W+s2cb+lsNODlR2gkFMfpv1YEhOYEur+R4NTi8Fl/zUBGwvsqY8BSBa7ULXgOOC+/mihk5gZg9sAeO792Bqm++dUhQEtVms6G0tBQl+77C/pKdKFsXjwtLx+DcMsWbEwAtn4JjW5dj/8EjKC8vh9Vqrbe8qnvf4uLJY1gybgjyooIUNce5DU7aTdXGVA7pI2JAJ8/WRy95X4ADD49WuVFBCyg19iqKdkVyvARHuMNGusOuJTyzegaJkU/5/uhQekQNq0Nh+HsGYmFKP0GkqnvfCNvgiNvlPe4PumfPHuwqOYyTO2bDvKIHLi0bibPLpuLcssk4syYf+0v2Ys/eEpw8edKpBNIOVd6+A4vVgmMbZ2Hd6C6Y/SE/yxwk2i9jLUlMnkk/3icDKl+lb7znJ8sT4OTHmn5WEKPfXti77ooC5ookQdVngkWj7so3Q9lYtRvNcujN2DOBbBDP7By9MUrx2sxxuH61TBCJxJIg2J8pAZcvX8b+/fsFOHv27sXefQdwfUN/WJeHo3RZHKjSju5Yiz37DohnvvrqK5SVlTmVHrO5AharFbfufoNbZQdwZX0Cdk0JwfwBgciPCRLq2R4kxompEb5C49ARcrRTsLq/9V0LcPKigtvOiDUe5fYe8kF+AowqzV5qSFwBjsn5DoWyHKpGJeFZm1WgsVSrT/ksz8yX5fT0w5wBXbBr6Wew2GzCiyKR7AGRv2kj6LlJqdlLYPbuxe6Sgzi2cwlsK8NhXR6KS+smoGTfQQjgqp9pUHpUNsliu4NKWwWqTi3GjXUfY980AxYPJkjcB0iZysU+ULXxW6WUHHpuDErVfXT1WoCT00vbZXqM/qp6BRuJKj/HpZYaAY5BI743wyidzzmrzJHdoi62Bye7VzCyuvthZp8grJ86EGe/2l6tUuq3CRIcSg1tjZQaCY4iPQdR9kUcbi034WTxHOzed0gAx2eo/g4cOOCC9Kg8QosNFttd2K6dwu0jubi+KhYlUw1YOEihQ1bP2vEgOkEcklfm5zmnkyMaKuBEB48oiNHdk2kbElSmW+yBkeC4OljGspiBVkugfdKTo4/5vfywPKkLjq7JhuXqWVTevqvELyrOlWCoz1JqTpw4IYgtgZFnSs/Xu5bj6qZ4lOzbL2yN/JsE6NSpU/VKpbquOte2O2I/HtvhItxeFYKyeaHYPsGAOR9rIQGiw8Rv89AZsld9jsCwv1et1rT5hSpnQO1xOAKH9zj3zJndkBURHMZDteBUJz1jlKWJBGZOvxDsmj0aV49vxa1KMyy2KpeJRam5cuUKaD8oCWrCy+uSvXtxaO+X2FOy/76/N0l6yDDWWzBfPgrr5kGwLTOhak0EKldF4MyMEKxN0IsvQ6Z1U2a2su+uOk+Sbjx7ZEQG/HdBtHb1dDt7Q+6uJWitvZBguZpVJoDqGEcmPXMitaAqWzUiGGfmdIHt2OewVd2BxXbbZWCk1NBu1AeMAlAJdjsARoLHd0+fPu1yvWaLDeYbZbAWj4F1qQHWFeHisK2MwO01Ebi5OAz7ppnw6cdaJBl8RNqKXq+a8K5ce2T0CPjT9Bj9PvUKNtoD2hsJhP1ZIbBrszVljCPLEMMFnf1R1Fsn1MD1hWGoWh0O27pIWA4Uwnyj3GWACA69LWdSIwFwdt69ezcOHjwo4h6WWUd93adWaQOtoq3WZSHC0ZDgyPOtVRGoXBmBC3NCMW9QAIYHaRCnrf74RgM2Wg2aR3avYG1hrOGS9NTI6TIFIQmqPjPGoRvt6mxNlkWPhWXw3bhgL+TFBOBINjsWDnZEdIodXREOy45RMF85DnOlc5ujlhoS1xnxXfkbpefs2bMNAEN1VgXz0SWwrohwCIwEiFJUtToC1xeFYe3IIGWoRO9znyOkBsP+2iM3MuiD/BjdHZm2oY1g2oEcrgZFXpPADLBcyY0RaHWsNEKrwdSePjhRaMKt1Qp3yc6I8/JQWJeFwrrxQ5hPbVAkyFIJR260lBp7D80VIBw9Q4APHTqEa9eu1ROYVsBSeQfmk+tgXdVVaWe1OqvTB7t7tEP8+/5MPdJ6+mBS58Aah8EeDPvfHnnRIm1Tg6jIrHb1cwiMBIg2hN5HQw6BALo6kOVwQUGfjrjyeagwnOSsejtFkFZ1hWVfhtDtFjspklJDL8sdUiPBovScP3/eofRYbn0jGMa6upvLwMj+sa9Uc6VzQ/DluGDM7adFZg8ybq3bbQ8Mf3vkxejmqZezczyHri8/DCHBsD+PDe/gknEjOMwi0LEYEazBupEBuL3WCSh2XEcpsmz8CJYzW2AWriu9OCUYpa1xl9RIcAj0kSNHcP369VrpsVhhrrwHy7FlsK7q4lSVSTDqO1uWhaH0UyPOzTRi5yS9AlLPWtfbHiCPwt66rTPfr93ojrGOcH1V8wTswZlQz4o0+8IJDoduPwnSYOEwP1z+zIir8xVbU18H7rtPKVoRAcuucTCXnYSl8htUmK1gXLNz585m2xoJjPp86dIlWIS7XAWztRKWr/Lrl3J7hnLy27xUAYcAXZ5rwvlZRuxM1WHOx8FCimif1TT0KIo2nFZ7alRXtCn2gNT+ro1T1AU5uqaKHBfui/lD/FA21yTAYcOuLwyFU7XmqIN0GFZ3h+VAESqulaLsmhlfHzuBvXv3uE21Ua3t2rULZ86eQ4XtLszlp2HZFg/rcsVZuY9xHLXTyb2KJbXgkA48rlSDtHWcDjM/UKRIBqwe+dG6W3KArSFPjQDRUeBoHwnvCBD1vayeWqwYESQaQKmRDeI1uajRAK0Ig3WZEdZ10bAcmg3L1XO4Un4DR4+fRMm+fQ3EOkq+TS0h8pqgEORDhw/j0pWrMFdch+XoQljX9IJ1mcktUsO+Mv6RNFCfSY+yeSacmW7AhmQdCntz4XIwPJhPk3kuacCZsKuVlLq2h260KzMbmcJYm6AV0qIGRjaq/PNGqjc1R9KjW2KAbW1P2Palw3qxBNfLS3H23AUcPvw1Svbvx96SEuzdWyKSnHv2KHk0giCuq5Oe/DtjpKPHT+DS5TLhfNhOrYN10wCFCViPut5mXEtwLs2pZVJJC3lWQDLiaK4BS4dq4TFTtdEdpYGzaepzowmYGChrYOoPgVkVpxVc4ggY2RhyUuOlR4nGBdFoj5bohZG2bR4I25EZsJzfiWulJ3DpwhmcPn0Kx44dx5Gvj+Lw4SPi4PWx4ydw+sxpXLp4HuWXzuLmub2wHp4J26aPYF1qdJu0qIFlP28sCoUzcCRdKEVUdx7qXQg5TMBvEiTWE+MQHC5RV6su9TV1JYFZ/okOF2cba2yMrNT+3CzpqeHiau+PRF2sE/bBtiEGlTsSUPlVNmxH58N6YhXMpzfCcmYTLKfW48bhRTj7RQaOLRyGr7LDcCLXT7zLHJmaoO68JjjXFrgGDulEpvawd6NTO3WsV6UxAB0X5ngCugSG4khX0ZnEsHJyEJ+hkWyW9NSARIli1B4uON+2RA/bEh3EealBJCdJfNsyI8o/DcDOpP/DzqQ/ozjlbRzJ8GmiDVRJcZ123H+ffaSn6orkSCYWNkdyP20Px1rqsze8zxE+ObQg3+OZEsMxjdOFBiGSsoKGzk3y3BogRC3HO46pbiwKwb5JXtg1tp04Dqb5gPcqV3VqUcmhpmgUOGpC0yHgOE194NAWMfVN9acGhpHu5/21OJbbOGAI3MXZJtxY5E7puZ9ra8FS/kZP8eBUb+wc0w67xrTD/sleKP/c2KLgsA2NBkdNZF47zUZzeXr3ujM1CQyDqEOZ+kZJDI3e8TwD1ibocCw/RCQJ7YnYUr8ZqR/N8kXx6PeE5JSkeuLyZ/oHAI5i6BvSJvLvHhIcxji0Gxx3qE9yuIpN7UZTlc3oo0XJVAWYhuyMrJSeyLkZRiwfzvySFsUTDQ3n21xWZQ1LDu3SyTz/GnD2jG+PC7O0brR9ddtAe2NZFo7iVD1O5BtQ/rlrINUBh+kDZ9kBzo3mMyJY7RWMgt7BKJ6gE4bdVWD4HD25dUnKYFtGdy3WJepRsSRcANRS0mJf7rnpQQKc3ePaC+k5WxTYouDcWByOmR9qMa+/Fjsm6EXq5tqCEKeOUy041bPkOd5dn+RQ5XGaDyWMAG0aqWswlpHSoj5vGaN8SozlZPYIxoKBWlyeGyaGEeyJ2BK/ycmX5uiEzSE4tD2UJEqU+zzHWulhRvrq/DAUxCiZaM7WmTcgCNtTA4UpuDrf5DBzUAccqiw5MGYPkHCjOaWJg3EcXo7TCgmgilIT3tk1n90zmRkJZUCPKpVTiqgaTxaFPDBwCHjZPAOk1BCcY9m+oC1qEXBWReDyZ6E1QyxkymndAzE2whuf9vfF4Rwdrs2/X9XVgMPsAAfZ6gOHYIkJcpFawenMAzUGGDoAh7L0KIpV8kbS1rGhnHK7P53ekmPX193SQwCuLTChJFUjVBrBOZLRARVLmpCQdcEWckT07MxQwdSy3zQPtO9xOg0mdvXGygR/nJ+l2CNpIv4fx0Onbi4ptLUAAAAASUVORK5CYII=;fontFamily=Helvetica;fontSize=11;fontColor=default;" vertex="1" parent="1">
          <mxGeometry x="110" y="160" width="103" height="129" as="geometry" />
        </mxCell>
        <mxCell id="L747Lcb5u26m36fs5fLU-5" value="" style="edgeStyle=none;shape=connector;rounded=0;orthogonalLoop=1;jettySize=auto;html=1;labelBackgroundColor=default;strokeColor=default;align=center;verticalAlign=middle;fontFamily=Helvetica;fontSize=11;fontColor=default;endArrow=classic;" edge="1" parent="1" source="L747Lcb5u26m36fs5fLU-2" target="L747Lcb5u26m36fs5fLU-4">
          <mxGeometry relative="1" as="geometry" />
        </mxCell>
        <mxCell id="L747Lcb5u26m36fs5fLU-2" value="S3 Bucket" style="sketch=0;outlineConnect=0;fontColor=#232F3E;gradientColor=none;fillColor=#6CAE3E;strokeColor=none;dashed=0;verticalLabelPosition=bottom;verticalAlign=top;align=center;html=1;fontSize=12;fontStyle=0;aspect=fixed;pointerEvents=1;shape=mxgraph.aws4.bucket_with_objects;fontFamily=Helvetica;" vertex="1" parent="1">
          <mxGeometry x="320" y="150" width="75" height="78" as="geometry" />
        </mxCell>
        <mxCell id="L747Lcb5u26m36fs5fLU-7" value="" style="edgeStyle=none;shape=connector;rounded=0;orthogonalLoop=1;jettySize=auto;html=1;labelBackgroundColor=default;strokeColor=default;align=center;verticalAlign=middle;fontFamily=Helvetica;fontSize=11;fontColor=default;endArrow=classic;" edge="1" parent="1" source="L747Lcb5u26m36fs5fLU-4" target="L747Lcb5u26m36fs5fLU-6">
          <mxGeometry relative="1" as="geometry" />
        </mxCell>
        <mxCell id="L747Lcb5u26m36fs5fLU-4" value="Lambda&lt;br&gt;Function A" style="sketch=0;outlineConnect=0;fontColor=#232F3E;gradientColor=none;fillColor=#D45B07;strokeColor=none;dashed=0;verticalLabelPosition=bottom;verticalAlign=top;align=center;html=1;fontSize=12;fontStyle=0;aspect=fixed;pointerEvents=1;shape=mxgraph.aws4.lambda_function;fontFamily=Helvetica;" vertex="1" parent="1">
          <mxGeometry x="500" y="150" width="76" height="76" as="geometry" />
        </mxCell>
        <mxCell id="L747Lcb5u26m36fs5fLU-6" value="DynamoDB&lt;br&gt;Table" style="outlineConnect=0;fontColor=#232F3E;gradientColor=none;fillColor=#3334B9;strokeColor=none;dashed=0;verticalLabelPosition=bottom;verticalAlign=top;align=center;html=1;fontSize=12;fontStyle=0;aspect=fixed;pointerEvents=1;shape=mxgraph.aws4.table;fontFamily=Helvetica;" vertex="1" parent="1">
          <mxGeometry x="660" y="176.5" width="78" height="78" as="geometry" />
        </mxCell>
        <mxCell id="L747Lcb5u26m36fs5fLU-9" value="stream" style="edgeStyle=none;shape=connector;rounded=0;orthogonalLoop=1;jettySize=auto;html=1;labelBackgroundColor=default;strokeColor=default;align=center;verticalAlign=middle;fontFamily=Helvetica;fontSize=11;fontColor=default;endArrow=classic;" edge="1" parent="1" source="L747Lcb5u26m36fs5fLU-8" target="L747Lcb5u26m36fs5fLU-6">
          <mxGeometry relative="1" as="geometry" />
        </mxCell>
        <mxCell id="L747Lcb5u26m36fs5fLU-8" value="Lambda&lt;br&gt;Function A" style="sketch=0;outlineConnect=0;fontColor=#232F3E;gradientColor=none;fillColor=#D45B07;strokeColor=none;dashed=0;verticalLabelPosition=bottom;verticalAlign=top;align=center;html=1;fontSize=12;fontStyle=0;aspect=fixed;pointerEvents=1;shape=mxgraph.aws4.lambda_function;fontFamily=Helvetica;" vertex="1" parent="1">
          <mxGeometry x="860" y="120" width="76" height="76" as="geometry" />
        </mxCell>
        <mxCell id="MHdR6BGKM9sXWjexlbbr-1" value="" style="sketch=0;points=[[0,0,0],[0.25,0,0],[0.5,0,0],[0.75,0,0],[1,0,0],[0,1,0],[0.25,1,0],[0.5,1,0],[0.75,1,0],[1,1,0],[0,0.25,0],[0,0.5,0],[0,0.75,0],[1,0.25,0],[1,0.5,0],[1,0.75,0]];outlineConnect=0;fontColor=#232F3E;fillColor=#01A88D;strokeColor=#ffffff;dashed=0;verticalLabelPosition=bottom;verticalAlign=top;align=center;html=1;fontSize=12;fontStyle=0;aspect=fixed;shape=mxgraph.aws4.resourceIcon;resIcon=mxgraph.aws4.bedrock;fontFamily=Helvetica;" vertex="1" parent="1">
          <mxGeometry x="230" y="336" width="78" height="78" as="geometry" />
        </mxCell>
      </root>
    </mxGraphModel>
  </diagram>
  <diagram id="phZ46mok5uNzNo2kvY17" name="Page-6">
    <mxGraphModel dx="1434" dy="854" grid="1" gridSize="10" guides="1" tooltips="1" connect="1" arrows="1" fold="1" page="1" pageScale="1" pageWidth="1169" pageHeight="827" math="0" shadow="0">
      <root>
        <mxCell id="0" />
        <mxCell id="1" parent="0" />
      </root>
    </mxGraphModel>
  </diagram>
</mxfile>
